<?xml version="1.0" encoding="utf-8"?>
<!-- Generator: Adobe Illustrator 19.2.0, SVG Export Plug-In . SVG Version: 6.00 Build 0)  -->
<svg version="1.2" baseProfile="tiny" id="Layer_1" xmlns="http://www.w3.org/2000/svg" xmlns:xlink="http://www.w3.org/1999/xlink"
	 x="0px" y="0px" viewBox="0 0 529.6 535.6" xml:space="preserve">
<g>
	<path fill="#fc987e" d="M248.4,10.7c11,0,22,0,33,0c0.9,0.3,1.9,0.7,2.9,0.8c14.4,2.3,29.1,3.5,43.3,7
		C469.8,53.7,553.5,202.8,510,342.8c-43.2,139.1-195.3,215.4-331.7,164.3c-90.7-34-145.6-100.5-164.8-195.7
		c-1.8-9.1-2.7-18.4-4-27.6c0-11.3,0-22.7,0-34c0.3-1.4,0.7-2.9,1-4.3c2.7-15.5,3.8-31.6,8.4-46.5C50,98,117.4,36.4,220.9,14.8
		C230,12.9,239.2,12.1,248.4,10.7z M307,365.9c10.5,11.2,13.5,25.3,13.5,40.6c0,19.5,0,39,0,58.5c0,12.8,6.7,17.4,18.9,13.1
		c28.3-9.9,53.5-25.2,75.9-45.1c70.7-62.9,94-168.6,56.1-255c-44.1-100.5-150-154.1-257-129.4C102.6,74.3,24.7,183.1,44.8,303.3
		c11.5,68.8,48.4,121.3,108.4,157c12.3,7.3,26,12.6,39.4,18.1c8.9,3.7,17.3-0.9,17.7-9.3c0.5-13,0.1-25.9,0.1-39
		c-5.6,0.7-10.9,1.5-16.2,2c-26.5,2.4-52-8.4-61.7-35.3c-4.5-12.6-12.7-22.9-24.4-30.1c-3.4-2.1-8.7-4.8-6.9-9.1
		c2-4.7,7.9-3.9,12.6-3.2c14.2,2.2,24.3,10.7,31.3,22.6c14.8,24.9,38.1,28.7,62.7,19.5c1.3-0.5,3-1.9,3.3-3.2
		c2.1-10.5,6-19.9,13.4-27.9c-9.8-2-19.4-3.4-28.6-5.8c-31-7.9-55-24.7-65.7-56.1c-3.6-10.6-5.7-21.9-7-33.1
		c-3-26.8,1.7-51.8,19.6-73.1c1.1-1.3,1.5-4,1-5.7c-4.2-15-3.7-29.9,0.4-44.9c3.5-12.5,4.5-13,17.3-10.3
		c16.1,3.4,30.1,11.3,43.9,19.7c2,1.2,5.1,1.9,7.3,1.3c35.2-9.3,70.4-9.2,105.7,0c2.2,0.6,5.2-0.1,7.3-1.2
		c10.2-5.1,20-11.3,30.6-15.7c7.1-2.9,15.1-3.6,22.7-5c2.4-0.4,4.3,0.4,5.3,3.2c5.9,17.1,8,34.4,2.9,52c-0.9,3.2-0.4,5.2,1.6,7.6
		c10.5,12.6,17.6,27,18.6,43.4c0.8,13.5,0.7,27.4-1.2,40.8c-5.1,35.7-24.2,61.2-59,73.1C334.1,360,320.5,362.5,307,365.9z"/>
</g>
</svg>
