<svg version="1.2" baseProfile="tiny" xmlns="http://www.w3.org/2000/svg" viewBox="0 0 614 253.4"><path fill="#9CD093" d="M84.1 218.4c.2.9-.4 1.3-1.1 1.7-4.8 3.2-10.1 5.5-15.7 6.6-8.5 1.7-16.8.9-24.8-2.2-.3-.1-.6-.3-.9-.4.2-.1.3-.2.5-.2.3-.1.6-.3.5-.6-.1-.4-.5-.5-.9-.4-.1 0-.3 0-.3.1-.7 1.3-1.5.6-2.3.1-1.6-.9-3.5-1.4-4.8-2.9h.7c.2 0 .6-.1.5-.4-.1-.4-.4-.3-.7-.3-.4.1-.4.4-.5.7-2.4-1.2-4.6-2.7-6.7-4.4-6.2-5.1-11.5-11-15.5-18-1.6-2.9-2.9-5.9-3.9-9.1-.8-2.5-1.4-5-2-7.5-.1-.6-.3-1.2.6-1.4.5-.1.3-.7 0-.8-1.1-.4-1.1-1.3-1.1-2.2v-5.2c0-1.9 0-1.9 1.9-2.4-.1.6-.6 1.2 0 1.9.4.5.8.6 1.3.3s.4-.7.1-1.1c-.4-.4-.4-1.2-1.3-1.1.2-.5.1-1.1.1-1.6s-.1-.9-.7-.9c-1 0-.9-.6-.8-1.3.6-3.2 1.3-6.4 2.5-9.5.2-.4.2-.9.9-1 1.1-.1 1.2-.2.6-1.1-.3-.5-.3-.9-.1-1.3 2.6-5.3 5.8-10.3 10.1-14.5 1.7-1.6 3.2-3.4 4.9-5 3.1-2.9 6.5-5.5 10.1-7.7.9-.5 1.7-1.2 2.8-1.3.2 0 .5-.1.7-.3 1.1-1.5 3-1.7 4.5-2.5.6-.3 1.2-.2 1.7.3 2.7 2.8 5.4 5.6 8.2 8.5-.1.4-.6.3-1 .4-2.4.6-4.7 1.5-7 2.5-.4.2-.8.4-1.2.3.3-.8 1.1-.9 1.7-1.3.7-.4.9-.9 1.1-1.6.1-.5 0-.8-.6-.9-1.4-.2-2.4 1-3.8 1l-.1.1c0 1.1-.7 1.4-1.7 1.6-.6.1-.8.7-.7 1.3.2.6.8.5 1.2.4.3 0 .6-.2.8-.3.6-.5 1.3-.4 1.9-.4-1.7 1.4-3.8 2.1-5.6 3.4-.7.5-.8-.3-1.1-.5-.3-.2-.6-.2-.8.1-.2.2 0 .5.2.6.7.5.3.8-.1 1.1-1.3 1-2.6 2-3.9 3.1-4.5 3.7-8.4 7.9-11.3 13.1-.1.3-.3.6-.6.6 0-.8-.6-1.5-.8-2.2-.3-1-1.4-.8-2.2-1.1-.6-.3-.8.3-1.2.6-.8.8-1.4 1.7-2.1 2.5-.8 1-.8 1.4.4 2.3.4-1.2 1-1.7 1.6-1.5 1 .4.4 1.2.4 1.8.5.1.5-.5.8-.4 1.2.2 1.7-.7 2.4-1.4.2-.2.4-.5.7-.5.1.5-.2 1-.4 1.4-4.6 9.9-4.4 19.9-.5 30 1.8 4.5 4.4 8.6 7.6 12.2 4.7 5.4 10 10.1 16.4 13.3 4 2 8.2 3.5 12.6 4 1.1.1 2.1.2 3.1.9s1.8-.9 3-.7c.9.2 1.8-.1 2.7-.3.8-.1 1.6-.5 1.7.8 0 .3.4.4.7.4.4-.1.5-.4.4-.7-.3-1.1.5-1.2 1.2-1.4 7.4-2.3 13.3-6.7 18.3-12.4 3.6-4.1 6.5-8.5 8.4-13.6.1-.3.2-.7.4-1 .4-.9.2-1.6-.5-2.3-3.3-3.2-6.6-6.5-9.9-9.7-2.6-2.5-5.2-5.1-7.8-7.6-.4-.4-.9-.8-1.3-1.3-2.6 2-4.7 4.5-6.9 6.9-2.6 2.7-5.2 5.3-7.7 8-.7.7-1.1.5-1.6-.1-1.9-2-3.9-3.9-5.9-5.8-.6-.6-.7-1.1 0-1.6 1.3-1 1.9-2.6 3.5-3.2.1.3.2.7.7.6.1 0 .3-.2.3-.3 0-.4-.3-.4-.6-.5l-.1-.1c.1-.6.6-.9 1-1.3 5.6-5.7 11.1-11.4 16.7-17.1.2-.2.4-.4.6-.7.5-.5.9-.5 1.4 0 4.3 4.3 8.7 8.5 13.1 12.8.4.3.7.7.6 1.3-.3 1.4.8 2 1.7 2.2 1.8.3 2.8 1.6 3.9 2.9-.2 0-.4 0-.5.1-.5.2-1 .3-1 .9 0 .2.2.5.5.5.6 0 1-.3 1.1-.9 0-.2-.1-.3-.1-.5 1.9 1.8 3.8 3.5 5.7 5.3 2 2 4 4 6.1 6 .7.7.8 1.3.6 2.3-2.4 8.3-6.4 15.9-11.7 22.7-1.4 1.7-2.9 3.4-4.3 5.1-.5.6-1 1.2-2 1-.6-.1-1 .2-.7.8.3.6 0 .9-.4 1.3-1.4 1.2-2.7 2.3-4.1 3.5-.6.5-1.2.4-1.9.3-.4-1.4-.9-1.6-2.4-1.1-.4.1-.8.2-.8.6 0 .5.4.7.8.8.4-.7 1.1-1 1.8-1zM13 177.3c.8-.8 1.4-1.3 1.7-2.3.2-.8-.1-1.1-.7-1.4-.7-.3-1.4-.4-1.7.4-.3.8-.5 1.6-.7 2.4-.1.4 0 .9.5 1 .6.1.3.3 0 .5-.4.2-.6.5-.4.9.2.4.6.4.9.4.8 0 1.8.4 2-.6.3-.9-.9-.8-1.6-1.3zm81.8-3.7c-.6 0-.6.4-.9.5-.6.3-1.2.7-1.7.2-.5-.5.2-.9.5-1.3s.5-.7 0-1.1c-.4-.4-.8-.3-1.2 0-.5.4-1 .9-1.5 1.4-.6.6-.3 2.4.5 2.5 1 .1 2.1.4 3.1-.1 1-.3.9-1.2 1.2-2.1zm-7.5-2.3c.2.1.4.1.5.2.5.4 1 .7 1.3-.1.3-.7-.3-1-.9-1-.9 0-1-.6-1-1.2v-1.1c-.1-.6-.5-.7-.9-.5-.6.3-1.4 1.8-1.2 2.3.5.9.7 1.6.3 2.6-.1.3 0 .6.3.8.4.2.7 0 1-.3.5-.4.3-1.1.6-1.7zM16.5 185c-.6.5-1 .2-1.4.1-.9-.3-1.1.4-1.2 1-.2.8.5.6.9.7.4.1.8.2 1.3.3.4.1 2.5-1.5 2.5-1.9 0-.1 0-.2-.1-.3-.8-1.8-2.3-2.2-3.7-.9.2.7 1.1.3 1.7 1zm63.1 27.3h-.7c-.4 0-.8 0-.8.5 0 .3.3.5.6.6 1.3.4 2.6.8 3.9 1.1.2.1.5 0 .7-.1.2-.1.5-.2.4-.5 0-.2-.2-.4-.3-.4-1.2-.5-2.4-1.3-3.8-1.2zm20.7-31.1c.4 0 .9 0 1.1-.5.1-.2.1-.5-.1-.7-.5-.6-2.4-1-3.1-.8-.3.1-.6.2-.6.6-.1.4.1.6.4.7.7.3 1.5.7 2.3.7zm-87.5-15.5c-.7 1.6.8 2.7.6 4.2 1.9-1.6 2-1.7.5-3.2-.4-.2-.4-.7-1.1-1zm93 19.4l-.3-.3c-.4 1.3-1.7 1.4-2.7 1.9.7.9 1.5.7 2.3.7 1.1-.1 1.2-.3.9-1.5-.1-.2-.1-.5-.2-.8zM64.2 168c0-.5-.2-.8-.7-.9-.7-.1-1.9 1.1-1.8 1.8.1.6.5.8 1.1.8.7-.1 1.4-.9 1.4-1.7zm-2.9 55.7c1.2 0 2.6-.5 2.5-.9-.1-.3-1.8-.9-2.5-.7-.5.1-1.1.2-1 .9 0 .6.6.7 1 .7zm7.9-54.8c.5-.1 1.1 0 1.2-.8 0-.4-1.2-1.2-1.7-1.2-.6 0-.9.4-.9.9-.1.7.6 1.2 1.4 1.1zm4.2 46.3c.4-.1.9-.1.8-.7 0-.7-.6-.9-1.2-.9-.4 0-.9.2-.9.7.1.8.6.9 1.3.9zm24.5-38.9c0-.6-.5-.7-.9-.7-.6 0-1.4 0-1.4.8 0 .6.6.7 1.1.7.5 0 1-.1 1.2-.8zm-62.5 35.5c.6 0 1.4-.7 1.3-1.2 0-.3-.3-.4-.5-.4-.7 0-1.5.6-1.4 1.1 0 .3.3.4.6.5zm62.9-37.4c.5-.2.8-.6.7-1.2 0-.3-.3-.5-.7-.4-.6.2-.7.6-.7 1.1.1.3.2.6.7.5zm6.9 15.8c-.4.1-.7.2-.7.6 0 .4.3.5.6.6.5 0 .9-.2.8-.7 0-.3-.3-.5-.7-.5zm-9.7 12.5c0-.4-.3-.6-.7-.7-.4-.1-.8 0-.9.4-.1.4.2.7.6.8.4.1.8 0 1-.5zm-6.6 9.2c-.1-.4-.4-.7-.8-.6-.4 0-.8.2-.7.6 0 .4.4.6.8.6.4.1.7-.1.7-.6zm12.2-33.8c.3 0 .5-.2.5-.5 0-.5-.4-.7-.9-.8-.3 0-.6.2-.5.6.1.5.5.7.9.7zm-31.5-7.5c0-.3-.2-.4-.5-.5-.4-.1-.8 0-.8.5 0 .2.1.5.4.5.4.1.7-.2.9-.5zm-55 1.2c-.3.1-.3.4-.3.6 0 .3.1.6.5.5.3-.1.4-.3.3-.5 0-.3-.1-.6-.5-.6zm75-3.5c.1-.4-.2-.5-.5-.6-.2-.1-.5-.1-.6.2-.1.4.2.5.5.6.3.1.5 0 .6-.2zm-74.5-19.6c-.1-.3-.3-.4-.5-.4-.3 0-.5.1-.5.4 0 .3.3.5.6.5.2-.1.4-.3.4-.5zm78.7 19.9c0-.2-.3-.4-.5-.3-.3 0-.5.2-.5.6 0 .3.2.4.5.4s.5-.2.5-.7zm-79.7-17.1c0-.3-.1-.5-.4-.5-.3-.1-.5 0-.5.3-.1.4.1.6.4.6.2 0 .4-.2.5-.4zm53.8 71.7c0-.3-.1-.5-.4-.5-.4 0-.6.2-.6.5 0 .2.1.5.4.5.3 0 .5-.2.6-.5zm-40.7-10.6c0 .3.3.4.5.4.3 0 .6-.2.5-.6 0-.3-.3-.4-.5-.4-.3.1-.5.2-.5.6zm44.7-45.4c0-.2-.1-.3-.3-.3-.3 0-.4.2-.5.4 0 .2.1.4.3.3.2 0 .4-.2.5-.4zm-57.7-4.8c.3 0 .5-.1.5-.4.1-.3-.1-.4-.4-.4-.3 0-.4.2-.5.5.1.2.2.3.4.3zM98.3 189c-.1.1-.4.1-.4.2 0 .3.3.4.5.4.1 0 .4-.1.4-.2.1-.4-.2-.3-.5-.4zm-62.1-54.9c-.1-.2-.2-.3-.4-.3s-.5.2-.4.4c0 .1.3.1.4.1.3.1.5 0 .4-.2zM99 200c.2 0 .4-.1.3-.3 0-.1-.2-.2-.3-.2-.2 0-.4 0-.4.2s.2.3.4.3zm-68.8 4.6c0-.2-.1-.3-.3-.3-.1 0-.2.1-.3.1-.1.2 0 .3.2.4.2.1.4 0 .4-.2zm65.5-25.5c.3 0 .3-.2.4-.3 0-.2 0-.4-.2-.4-.3-.1-.4.1-.4.4-.1.2 0 .3.2.3zM22.9 142c.1-.3-.1-.4-.2-.4-.2-.1-.4 0-.4.1-.1.3 0 .4.3.5.1 0 .2-.1.3-.2zm42.7 32.3c0-.1-.1-.2-.1-.3-.1 0-.2 0-.3.1-.1.2 0 .3.1.3s.2 0 .3-.1zm17.5 42c.2 0 .3-.1.3-.3 0-.1-.1-.2-.2-.2-.2-.1-.3 0-.4.2 0 .2.1.3.3.3zm-16.7-44.2c.1 0 .2-.1.3-.1 0-.1 0-.2-.1-.3-.2-.1-.3 0-.3.2-.1.1 0 .2.1.2zm-46.9-23.2c.1-.1.2-.2.1-.3-.1-.1-.2-.2-.3-.1-.1 0-.1.2-.2.3.1 0 .2 0 .4.1zM319.8 57.9c.1-2.4 0-4.7-.1-7.1 0-.6-.1-1.1-.1-1.7-.2-7.2-.3-14.3-.6-21.5-.2-4.1-.3-8.1-.3-12.2 0-1.6 0-1.6 1.6-1.7 2.8-.1 5.6-.1 8.3-.1 1.5 0 1.5 0 1.5 1.6.1 5.5.2 11.1.4 16.6.3 8.7.5 17.4.8 26.1l.3 11.3c.3 8.7.6 17.4.8 26.1 0 1.7.3 3.3.2 5-.5.3-.9-.7-1.3 0-.3.6-.5 1.3-.3 2 .3.8.9.2 1.5.3.1.2.2.3.2.5.1 5.1.3 10.1.4 15.2 0 1.8 0 1.8-1.6 1.8-2.8.1-5.7.1-8.5.1-.9 0-1.4-.3-1.3-1.3.1-1.2-.4-2.5.7-3.5.1-.1.1-.5 0-.7-1.2-1.4-.7-3.1-1-4.7-.1-.5-.1-1-.1-1.6-.7.4-.9 1-1.2 1.5-4.5 7.3-11 11.4-19.5 12.5-2.3.3-4.6.3-6.8.3-.7 0-1.4 0-2-.4-.2-.1-.5-.2-.7-.2-5.5-.1-9.9-2.7-13.8-6.2-5.5-4.9-8.5-11.3-10-18.4-1.2-5.8-1.4-11.7-.9-17.7.5-5.6 1.9-10.9 4.5-15.9 4-7.4 9.8-12.8 18-15.2 5.6-1.6 11.3-1.9 17-.5 5.2 1.2 9.3 4.1 12.5 8.4.3.4.7.9 1 1.3h.4zM278 85c0 2.2.1 4.4.4 6.6.7 5.2 2.3 10 5.6 14.1 3.3 4 7.4 6.4 12.6 6.9 1.2.1 2.4-.2 3 1.4.4.9 1.8.6 1.8-.2-.1-1.2.5-1.1 1.3-1.2 4.2-.6 7.9-2.3 11-5.3 5.5-5.4 7.3-12.2 7.2-19.7 0-1.7-.2-3.3-.2-5-.1-2.7 0-5.4-.4-8.1-.7-5-3-9.2-6.7-12.6-5.6-4.9-12.1-5.8-19.1-4.1-7.2 1.7-11.6 6.6-14.3 13.3-1.7 4.4-2.3 9.1-2.2 13.9zm52.2 16.7c0-.9-.1-1.9-.9-2.2-.9-.3-1.4.6-1.9 1.2-.6.7-.5 1.1.4 1.5.5.2.8.6 1.2.8.5.4.9.2 1.1-.4.1-.3.1-.6.1-.9zm.5 8.8c-.6.2-1.1.6-1 1.3.1.8.4 1.5.6 2.3.1.4.5.7 1 .7.4 0 .9-.2.7-.6-.3-1-.1-2-.4-2.9-.1-.4-.3-.8-.9-.8zm-50.9-2.5c.8 0 1.7-.8 1.6-1.3-.2-.7-.7-.8-1.3-.8-.7 0-1.3.3-1.3 1.1.1.5.5 1 1 1zm20 11.4c.3 0 .5-.1.6-.4.1-.3-.2-.4-.4-.5-.3 0-.5 0-.5.3-.1.4.1.6.3.6z"/><path fill="#F79981" d="M369.7 96.9c-1.1 5.3-2.2 10.4-3.3 15.5l-2.4 10.8c-.2.9-.4 1.3-1.4 1-2.9-.7-5.9-1.3-8.8-2-1.4-.3-1.5-.4-1.2-2 1.1-5.1 2.2-10.2 3.3-15.4 3.2-14.7 6.4-29.4 9.5-44.1 2.5-11.6 5-23.1 7.5-34.7.1-.4.2-.8.3-1.3.1-1 .5-1.2 1.5-1 9.7 2.2 19.4 4 29 6.5 6.6 1.7 12.6 4.6 17.4 9.7 4.3 4.6 6.7 10.2 6.9 16.5.2 8.2-1.6 15.8-6.6 22.5-4 5.4-9.3 8.9-15.7 10.9-.1-.2-.2-.4-.2-.5 0-.7 0-1.5-.9-1.6-.7-.1-1.5.4-1.6 1-.2 1.1-.9 1.2-1.7 1.3-2.6.6-5.2 1.5-8 1.2-4-.4-7.9-1.1-11.8-2-2.8-.6-5.5-1.2-8.3-1.8-1.2-.3-1.2-.3-1.5 1-.4 1.5-.7 3-1 4.5-.2.7-.4 1.3-1.3 1.2-.1 0-.2 0-.4.1-1 .3-1.4.9-1.3 1.8.1 1.1.4 1.2 2 .9zm24.6-16.4c2 .1 3.8 0 5.6-.4 5.7-1.3 10-4.3 12.7-9.5 2.3-4.4 3.1-9 2.8-14-.3-4.5-2.2-8.1-5.7-11-3.3-2.8-7.3-4.4-11.4-5.4-4.7-1.1-9.5-2.1-14.2-3.1-1.4-.3-1.4-.3-1.7 1.2-2.1 9.6-4.2 19.2-6.3 28.9-.6 2.8-1.2 5.5-1.8 8.3-.3 1.4-.2 1.5 1.2 1.9 2.3.5 4.7 1.1 7 1.6 4 .6 7.9 1.7 11.8 1.5zm-25.1 11.6c-.1-.3-.3-.8-.5-1.3-.5-1.1-1.1-1.3-2.2-.9-.5.2-1 .5-1.2 1-.3.6-.6 1.2-1 1.7-.5.7-.1 1.6.6 1.4 1.3-.4 2.7-.3 3.9-1 .3-.1.5-.2.4-.9zm-2.2 6.5c-.7 0-1.4.5-1.5 1.2 0 .6.2 1.1.9 1.2.6.1 1.5-.6 1.5-1.3.1-.6-.3-1-.9-1.1zM418.6 79c-.2 0-.5 0-.5.4 0 .2.2.3.3.3.2 0 .5 0 .5-.3.1-.3-.1-.4-.3-.4zM493.3 104.7c-.7.1-1.6-.4-1.6.5 0 1 1 .6 1.7.7.1 3.6-1 7-2.3 10.4-1.5 3.9-3.4 7.6-5.2 11.4-5 10.8-10.1 21.5-15.2 32.3-.1.3-.3.5-.4.8-.3.8-.7 1-1.5.6-2.7-1.3-5.5-2.6-8.2-3.9-1.2-.6-1.2-.6-.6-1.8 1-2.2 2.1-4.5 3.1-6.7.3-.5.6-1 .6-1.8-.8 0-1.3.5-1.9.8-7.5 4.4-15.2 4.7-23 1.1-2.9-1.3-5.6-2.9-7.9-5.1-6.3-5.8-8.1-13.7-5-21.8 1.7-4.5 4.3-8.5 8.3-11.3 3-2.1 6.3-3.2 10-3.5 5.3-.4 10.4.7 15.4 2.3 5.9 1.9 11.8 3.7 17.6 5.5 1.5.5 1.5.5 2.2-1 1.3-3 2.2-6.1 2.2-9.5 0-4.3-1.9-7.6-5.3-10-3.8-2.6-8-4-12.5-4.7-4.7-.8-9.5-.5-14.1.6-.3.1-.6.1-.9 0-.2-.5.2-.9.4-1.3 1.2-2.6 2.5-5.2 3.6-7.9.4-.9 1-1.3 2-1.3 10.5-.7 20.1 1.9 28.8 7.5 3.8 2.5 6.8 5.7 8.5 10 .8 2.2 1.3 4.6 1.2 7.1zm-45.9 12.4c-2.7-.2-5.6 1.4-7.9 4.4-1 1.3-1.8 2.8-2.4 4.4-1.6 4.6-.3 9.7 3.4 12.7 4.6 3.7 9.8 5.6 15.8 4.5 4.5-.8 8.2-2.9 11.3-6.3 3.1-3.3 4.7-7.5 6.5-11.5.5-1 .3-1.1-.9-1.5-5.5-1.7-11-3.5-16.6-5.2-2.5-.9-5.3-1.4-9.2-1.5zm26.9-30.9c-.1-.5-.3-.8-.8-.8s-1.3.7-1.2 1.1c0 .6.5.6.9.6.5 0 1-.2 1.1-.9zm-46.9 41.2c.2 0 .5 0 .6-.4.1-.4-.2-.5-.5-.6-.4-.1-.8.1-.8.5s.3.5.7.5zm59.2-19.3c.3-.1.4-.3.3-.6-.1-.2-.2-.3-.4-.2-.3.1-.4.3-.3.6 0 .1.2.2.4.2z"/><path fill="#9CD093" d="M205.4 62.3c.1-.4.5-.5.8-.6 3.6-1 7.3-1.8 11.1-1.9 10.5-.1 18.8 4.2 25.1 12.6 1.1 1.4 2.1 2.9 2.9 4.5.3.5.7 1 .5 1.7-.2 0-.4-.1-.5 0-.3 0-.6.2-.5.6.1.3.5.3.8.1.2-.2.2-.4.2-.6.8.3.9 1 1.1 1.6 2.3 5.2 3.9 10.5 4.5 16.1.7 5.7.3 11.3-1.7 16.8-3.1 8.8-9 15-17.5 18.9-5.8 2.7-12 4.2-18.4 4-6.9-.1-13-2.4-18.5-6.6-5.6-4.3-9.3-10-11.8-16.5-2.4-6.3-3.7-12.9-3.5-19.7.4-11.7 5.7-20.6 15.4-26.9 2.4-1.6 5.1-2.7 7.8-3.7.9-.4 1.5-.6 2.2-.4.1.8.6.8 1.2.6.2-.1.3-.2.3-.4-.2-.6-.7-.1-1.1-.2-.2-.1-.3 0-.4 0zm-3.3 57.9c-.3.1-.5.2-.7.2-.5.1-1 .4-.9 1 .2.6.8.5 1.3.5.2 0 .4 0 .5-.1.8-1 1.5-.3 2.2.2 3.7 2.6 7.8 3.8 12.4 3.8 3.5 0 6.9-.8 10.1-2.1 8.4-3.4 12.7-9.8 13.3-18.8.2-3.7-.2-7.4-1.1-11-1.4-5.7-3.4-11.1-7-15.8-3.6-4.6-8.1-7.6-14-8.1-6.1-.5-11.8 1-16.9 4.4-6.3 4.2-9.1 10.5-9.5 18-.3 5.6.9 10.9 2.9 16.1 1 2.6 2.1 5.1 3.7 7.4 1 1.5 2.3 2.8 3.7 4.3zm-10.7 2c.6 0 1.2-.1 1.3-.8.1-.6-.4-.8-.9-1-.7-.3-1.3-.3-1.8.2-.2.2-.4.5-.3.8.3.8 1 .8 1.7.8zm5.2 3c0-.1 0-.3-.1-.3-.9-.1-1.6-.7-2.4-1-.2-.1-.5.2-.5.5 0 .1.1.4.2.4.6.2 1.1.1 1.4.9.3.3 1.3 0 1.4-.5zm11.3-59.5c-.1.2-.7.2-.5.7.1.4.5.3.8.3.3 0 .7 0 .7-.4-.1-.5-.4-.6-1-.6zM213 132c-.1-.3-.3-.4-.5-.3-.2 0-.3.1-.4.3 0 .3.2.4.4.4.3.1.5-.1.5-.4zM99.4 128.8c-.1-5.7 1.3-10.7 3.8-15.5.3-.6.5-1.3 1.3-1.5.2 0 .4-.2.4-.3.2-2.7 2.3-4.1 4-5.8 4.9-4.9 10.6-8.5 17.1-10.7 11.6-3.9 22-1.5 30.9 6.7 7.4 6.8 12.4 15.2 14.8 25 3.3 13.3-1.3 26.6-12.8 35-5.1 3.7-10.6 6.5-16.9 7.7-2.9.5-5.7.9-8.6.4-.5-.1-1.1 0-1.5-.5-.2-.2-.4-.3-.7-.2-1.5.7-2.8-.1-4.1-.5-6.7-2-12.1-6-16.5-11.4-5.1-6.4-8.8-13.5-10.5-21.6-.6-2.3-.8-4.6-.7-6.8zm62.3 8.6v-3c0-.3-.1-.6-.1-.9-1.9-9.3-6.3-17.2-13.3-23.7-6-5.5-13-7.4-20.9-4.6-.8.3-1.9-.3-2.2.2-.5.8-1.2 1.2-1.9 1.6-2.2 1.2-4.2 2.6-6 4.3-5.7 5.6-7.4 12.4-6.3 20.1.3 2.3 1.7 4.3 1.4 6.8 0 .1.1.2.2.3 1.1.4 1.2 1.5 1.6 2.4 2.2 4.5 4.9 8.7 8.7 12.1 4.7 4.2 10.1 6.6 16.5 6.3 5.4-.3 10.1-2.5 14.4-5.8 5.2-4.1 8-9.3 7.9-16.1zm-1.1-18.2c.1-.8-.7-1.5-1.7-1.7-.4-.1-.9-.2-1.2.3-.3.5.1.8.4 1.1.4.3.9.7 1.4.9.5.2 1 0 1.1-.6zm-53.5 8.1c.4 0 .7-.2.7-.6 0-.7-.4-1-1-1-.4 0-1-.2-.9.4.1.6.6 1 1.2 1.2zm54.8-17.3c-.2-.5-.7-.7-1.2-.6-.4.1-.9.2-.9.8 0 .6.5.6.9.6.6-.1 1.1-.2 1.2-.8zm-43.6-1.2c.3-.1.6-.4.6-.8s-.2-.8-.6-.7c-.4 0-.6.4-.6.8-.1.4.1.7.6.7zm-9 28.2c.3 0 .6-.2.6-.5.1-.4-.2-.7-.6-.7-.4 0-.7.2-.7.6 0 .4.3.6.7.6zm46.2-26.6c0-.4-.3-.5-.6-.6-.3 0-.5.1-.5.4 0 .4.2.5.6.6.2 0 .4-.1.5-.4zm-46.4-1.8c.3 0 .5-.1.5-.3 0-.4-.2-.6-.6-.5-.3 0-.5.2-.5.5.1.2.3.2.6.3zm57.2 29.7c-.3 0-.5.2-.4.5 0 .1.2.3.4.3.3 0 .5-.1.5-.4 0-.2-.3-.4-.5-.4zM137.1 167c-.3 0-.5.1-.5.4 0 .2.2.3.3.4.3 0 .5-.1.5-.4.1-.3-.1-.4-.3-.4zm-30.3-55.8c0-.3-.3-.4-.5-.4-.3 0-.6.2-.6.5 0 .2.1.5.4.5.4 0 .6-.2.7-.6zm-3.3 4.7c0-.3-.1-.5-.4-.5-.3-.1-.5.2-.5.4s.2.5.5.4c.3 0 .4-.1.4-.3zm2.1.3c0-.2-.2-.3-.4-.3-.1 0-.2.2-.2.3 0 .2.2.3.4.3.1-.1.2-.2.2-.3z"/><path fill="#F79981" d="M550.8 147.5c-.6-.3-.6-1-.9-1.5-3.3-7-8.3-12.4-15.3-15.7-2.4-1.1-4.9-1.6-7.6-1-3.8.8-7 4.5-7.2 8.4-.1 2.2.4 4.3 1.4 6.3 1.6 3.3 3.6 6.3 5.5 9.4 1.8 2.9 3.4 5.9 4.8 9 1.1 2.5 1.8 5.1 2 7.8.3 4.6-1.4 8.6-4.2 12.1-4 5-9.3 7-15.6 6.8-4.4-.2-8.3-1.5-12.3-3.4.3-.6.8-.7 1.2-.9.5-.4.8-.8.5-1.4-.2-.4-.6-.6-1.1-.5-.6.1-1 .5-1 1.1 0 .4.1.9-.2 1.3-1.6-.6-3-1.6-4.4-2.6-5-3.4-9.4-7.4-12.6-12.6-.1-.2-.2-.3-.3-.5-1.8-2.9-1.8-2.9.2-5.6 1.6-2.1 3.2-4.3 4.7-6.4.2-.2.3-.5.8-.6.4.5.5 1.2.7 1.8 3.2 8.5 8.8 14.9 17 19 2.2 1.1 4.6 1.9 7.1 1.4 3.7-.6 7.1-4.2 7.5-8 .3-2.9-.5-5.6-1.8-8.2-1.6-3.2-3.6-6-5.4-9.1-1.7-2.9-3.4-5.9-4.8-9-4.1-9.6-.4-18.3 7.2-23.3 4-2.7 8.6-3.1 13.4-2.5 7.7 1.1 14 4.8 19.7 9.9 2.7 2.5 5.1 5.2 7.1 8.3.5.8.7 1.4 0 2.3-1.9 2.4-3.6 4.8-5.4 7.3-.2.2-.3.5-.7.6zM516.6 183c-.4-.9-1-.6-1.3-.8-1.4-1.1-2.8-1.4-4.3-.3-.4.3-1 .4-1.6.3-.2-.1-.5-.1-.7-.1-.4 0-.7.2-.8.6-.1.5.2.7.6.7.9 0 1.7.4 2.5.4.8.1 1.8.4 2.3-.1 1-.8 2-1 3.3-.7zm4-.7c.8 0 1.3-.1 1.4-.7.2-.6-.3-.9-.8-1-.8-.3-1.6-.5-2.4-.8-.3-.1-.5 0-.7.2-.2.2-.2.5 0 .7.8.8 1.6 1.5 2.5 1.6zm-15.4 0c.5-.1 1.4.3 1.4-.6 0-.7-.9-.7-1.4-.8-.3-.1-.6-.1-.9 0-.4.1-1.1.2-1 .9.1.5.7.4 1.1.5h.8zm24.3-60.5c0-.4-.2-.6-.4-.8-.7-.4-1.3-.3-1.9.1-.3.2-.5.4-.4.7.3.7 1 .8 1.7.8.5.1.9-.2 1-.8zm-3.3 39.7c-1-.3-1.9-.3-2.8-.1-.2 0-.5.3-.5.5-.1.4.2.5.5.6 1.1.4 1.9-.1 2.8-1zm-5.8 24.5c.3-.1 1 .1.9-.7-.1-.5-1.1-.9-1.8-.7-.4.1-.8.2-.7.6.1.8.9.7 1.4.8h.2zm8.2-25.1c-.3.1-.9.2-.8.8.1.7.7.8 1.3.7.4 0 .9 0 1-.6.1-.3-.7-.9-1.5-.9zm-10.5-29.8c.4-.1.9-.2.8-.8-.1-.6-.6-.8-1.1-.8-.6 0-.9.3-.9.9.1.6.6.7 1.2.7zm13.6 41.7c-.6-.7-1.2-.9-1.9-1-.2 0-.5.1-.6.4-.1.3.1.5.3.6.7.3 1.4.4 2.2 0zm-11.4-20.9c.4 0 .8-.2.8-.7 0-.3-.3-.5-.6-.6-.5 0-.8.2-.9.7.1.3.4.5.7.6zm-18.6 27.8c.5-.4.8-.6.8-1.1 0-.1-.2-.2-.2-.2-.6.2-.8.5-.6 1.3zm12.2-48.7c0-.2-.2-.3-.4-.3s-.4.2-.4.3c0 .3.2.4.5.4.2 0 .3-.2.3-.4zm21.5-4.5c0-.3-.2-.4-.4-.4s-.4.1-.4.3c0 .3.2.4.5.4.2 0 .3-.1.3-.3zm-10.8 54c.1-.2.1-.4-.1-.4-.1 0-.2 0-.3.1-.1.1-.1.3 0 .4.1.1.3 0 .4-.1zm-12.2-52.9c0 .1-.1.2-.1.3 0 .1.2.2.3.1.1-.1.1-.2.1-.3-.1 0-.2-.1-.3-.1zM587 164.9c-.6.4-1.1.3-1.5.4-.3.1-.6.2-.6.6.1.3.4.5.7.5.9-.1 1.7-.1 2.6-.2.8-.1 1.4.1 2.1.5 7.3 4.8 12.6 11.2 16 19.2.4.9.5 1.6-.3 2.3-2.1 2-4.2 4-6.3 5.9-.3.3-.7.8-1.3.7-.6-2.3-1.2-4.6-2.2-6.8-.1-.2-.2-.5 0-.7.9-.9.1-.9-.5-1-.3 0-.4-.3-.4-.5 0-.4.3-.5.7-.4.4 0 .7.2 1.1.2.5 0 .8-.2.9-.7.1-.5-.3-.8-.7-1-.6-.2-1.2-.1-1.8-.1-.9.1-1.6-.1-2.2-1-1.4-2.1-3-4-4.8-5.7-.5-.5-.9-1-1.3-1.5.4-.6 1-.2 1.4-.5.2-.1.4-.3.3-.6-.1-.3-.3-.4-.6-.4s-.6.1-.9.2c-1.1.6-2.1.3-3.1-.2-2.6-1.4-5.3-2.1-8.2-1.2-3.5 1.1-6.4 4.4-6.6 8.3-.1 3 .7 5.7 1.8 8.4.7 2 1.5 3.9 2.3 5.9.3.7.8 1.4.2 2.3-.2.3-.1.7.3.7.9.1.9.9 1.2 1.5.8 2.2 1.5 4.3 1.9 6.6.7 3.7 1 7.4-.4 11.1-.6 1.5-1.3 2.8-2.2 4.1-.6.8-1.2 1.7-2.5 1.7-.5 0-1.4.2-.5 1.1.3.3-.1.5-.4.7-3.2 2.8-7 4.3-11.3 4.4-.4 0-.8-.1-1.2-.4-.2-.2-.5-.3-.8-.2-2.5.9-4.6-.4-6.9-1.1-.3-.1-.4-.4-.6-.7-.4-.8-.9-1.2-1.8-.9-.6.2-1 0-1.4-.2-1.6-.9-3.1-2-4.6-3.1-.3-.3-.7-.5-.9-.9-.1-.3-.3-.6-.5-.7-3.5-1.8-5.6-5-7.9-7.9-2.6-3.3-4.5-6.9-5.7-10.9-.3-1.1-.1-1.7.7-2.4 1.4-1.2 2.7-2.5 4.1-3.8.6-.6 1.2-1 2.1-.4.2.2.6.3.9.3 1.4-.3 1.7.5 2 1.7.8 3.5 2.3 6.8 4.2 9.8.7 1.1.7 1.1-.3 1.9-.5.4-.8.8-.6 1.4.2.6.8.9 1.3.8 2.2-.3 3.5.9 4.9 2.3 2.5 2.5 5.3 4.6 9 5.2.8.1 1.2.9 1.8 1.2 1.4.6 1.7.5 1.9-.9.1-.5.3-.7.7-.9 2.5-1.3 4.4-3.2 5.2-5.9.2-.6.6-.9 1.2-1 .5-.1 1-.2 1-.8 0-.5-.2-1-.7-1.2-1-.2-1.2-.9-1.2-1.8-.1-.7-.3-1.5-.3-2.2-.1-1 .1-1.3 1.1-1.2 1 .1 2.1.3 3.1.4.4 0 .9.1 1.3 0 .6 0 1.1-.3 1.3-.9.3-.6-.1-1.1-.5-1.5-1-.7-1.6-1.9-2.9-2.2-.4-.1-.7-.5-1.1-.7-.4-.3-.9-.6-1.4-.9-.4-.2-.9-.4-1.4 0-.5.4-.4.9-.3 1.4.2.8.5 1.7 1.1 2.3.2.2.3.5 0 .7-.3.3-.5 0-.7-.3-1.7-2.5-2.6-5.3-3.6-8-1.3-3.3-2.4-6.7-3.2-10.2-2.3-9.9 3-17.5 10.7-21.1 4.2-2 8.7-1.8 13.2-.6 1.6.2 3.2.7 4.8 1.7zm-25.6 63.6c0-.1-.1-.3-.1-.3-.9-.2-1.2-.8-1.5-1.6-.1-.5-.8-.6-1.3-.4-.6.2-1.2.5-1.3 1.2-.1.6.4.9.8 1.1.9.3 1.8.4 2.7.6.3-.1.6-.2.7-.6zm-10.3-2.5c.3 0 .8.1 1-.4.2-.5-.2-.8-.5-1.1-.8-.7-1.8-.7-2.7-.1-.2.1-.4.3-.3.6.1.3.3.4.5.5.6.2 1.3.3 2 .5zm21.2-6.6c-.9-.1-1.6.2-2.2.4-.2.1-.4.3-.5.5 0 .4.2.5.5.7.8.3 1.5-.1 2.2-.2.5-.1 1.1-.2 1.1-.8-.1-.8-.8-.5-1.1-.6zm-30.7-4.7c-.4 0-.7.2-.8.5-.1.2.1.5.2.6.4.4.8.9 1.5 1.1.5.2 1 .2 1.3-.2.4-.5-.1-.9-.5-1.2-.5-.5-1.1-.8-1.7-.8zm24.8-37.3c.6 0 1.4 0 1.8-.8.1-.2.1-.4-.1-.5-.7-.4-1.4-.6-2.1-.3-.5.2-.9.6-.8 1.1.1.6.7.5 1.2.5zm6.5 19.2c.1-.5-.5-1.1-1.2-1.2-.5 0-.9.2-1 .7-.1.7.4 1 1 1.1.5 0 1.1 0 1.2-.6zm-23.1 22.8c-.1-.6-.6-.7-1.1-.7-.5 0-.9.1-.9.6 0 .6.5.8 1.1.8.4 0 .8-.2.9-.7zm-14.1-16.1c-.4.1-.7.4-.6.8.1.5.5.7.9.7s.7-.3.7-.7c0-.5-.4-.8-1-.8zm2.2 13.7c.7.3 1.2.6 1.7-.1.1-.1 0-.3 0-.3-.5-.3-.9-.2-1.4.1l-.3.3zm33.1-18.3c-.1-.5-.4-.7-.9-.7-.3 0-.5.2-.5.4 0 .5.4.7.9.7.3.1.4-.1.5-.4zm-3.5 21.6c0-.4-.3-.5-.6-.5-.4 0-.9 0-1 .5 0 .3.3.5.6.5.4 0 .8-.1 1-.5zm-1.1-41.7c-.2-.3-.5-.4-.9-.4-.3 0-.6.1-.6.5.1.4.4.6.8.5.4 0 .6-.2.7-.6zM534.9 209c-.2 0-.4.1-.4.3 0 .5.4.7.8.7.2 0 .3-.2.3-.4 0-.4-.3-.6-.7-.6zm66.1-22.8c0-.3-.2-.5-.4-.4-.3 0-.5.1-.5.4 0 .3.1.5.3.5.4.1.5-.2.6-.5zm1.7-1.4c-.1-.2-.2-.2-.4-.2s-.3.1-.3.3c0 .2.2.2.4.2.1 0 .3-.1.3-.3zm-41.5-8c0-.2-.1-.3-.3-.3-.1 0-.3.1-.3.2-.1.2 0 .3.2.4.2-.1.3-.1.4-.3zm38.7 11.5c.1-.2-.1-.3-.3-.4-.2-.1-.5 0-.6.3-.1.2.1.3.3.4.2 0 .4 0 .6-.3zm-9-18.9c0-.2-.1-.3-.3-.3-.2 0-.4.1-.4.2-.1.3.1.4.4.4.1 0 .2-.2.3-.3zm0 2.1c.2 0 .4-.1.3-.3 0-.2-.2-.3-.4-.3s-.4.1-.3.3c.1.3.2.3.4.3zm1.4 3.3c.1-.1.2-.2.1-.3-.1-.1-.2-.2-.3-.1-.1.1-.1.2-.2.3.2 0 .3.1.4.1zm-18.8 24.3c0 .1-.1.2-.1.3l.1.1c.1-.1.2-.1.2-.2 0 0-.2-.1-.2-.2z"/><path fill="#F79981" d="M534.7 194.6v-.3c.3-.4.6-1 1.2-.6.1.1.2.3.2.5-.2.6-.8.5-1.4.4z"/><path fill="#9CD093" d="M57.9 170.5c0-.2.1-.4.3-.4l.1.1c0 .2-.2.3-.4.3z"/><path fill="#FFF" d="M20.5 154.5c-.3 0-.5.3-.7.5-.6.7-1.1 1.6-2.4 1.4-.2 0-.3.5-.8.4 0-.6.6-1.5-.4-1.8-.6-.2-1.2.3-1.6 1.5-1.2-.8-1.2-1.3-.4-2.3.7-.8 1.3-1.8 2.1-2.5.3-.3.5-.9 1.2-.6.7.4 1.8.1 2.2 1.1.2.8.8 1.5.8 2.3zm-2.9-2.4c0-.1-.1-.3-.2-.3-.2-.1-.3.1-.3.3 0 .1.1.3.1.3.3.1.3-.1.4-.3zM43.8 133c-.7-.1-1.3-.1-1.9.4-.2.2-.5.3-.8.3-.5.1-1.1.2-1.2-.4-.2-.6 0-1.2.7-1.3.9-.2 1.7-.5 1.7-1.6l.1-.1c1.4.1 2.4-1.2 3.8-1 .6.1.7.4.6.9-.1.7-.4 1.2-1.1 1.6-.8.3-1.6.5-1.9 1.2 0 .1 0 0 0 0zM13 177.3c.7.5 1.9.5 1.6 1.4-.2 1-1.3.6-2 .6-.4 0-.8 0-.9-.4-.1-.4.1-.7.4-.9.3-.2.5-.4 0-.5-.6-.1-.6-.6-.5-1 .2-.8.4-1.7.7-2.4.3-.8 1-.7 1.7-.4.6.3.9.6.7 1.4-.2.9-.9 1.4-1.7 2.2zM94.8 173.6c-.3.8-.2 1.7-1.1 2.1-1 .4-2.1.2-3.1.1-.8-.1-1.1-1.9-.5-2.5.5-.5 1-.9 1.5-1.4.4-.3.8-.4 1.2 0 .4.4.2.8 0 1.1-.3.4-1 .8-.5 1.3s1.1.1 1.7-.2c.2-.1.3-.5.8-.5zM87.3 171.3c-.3.6-.1 1.3-.5 1.7-.3.3-.6.4-1 .3-.3-.1-.5-.5-.3-.8.4-.9.2-1.7-.3-2.6-.3-.5.5-2 1.2-2.3.5-.2.9-.1.9.5v1.1c0 .7.1 1.2 1 1.2.6 0 1.2.3.9 1-.3.8-.8.5-1.3.1-.3-.1-.5-.1-.6-.2zM16.5 185c-.5-.7-1.5-.3-1.8-1.1 1.5-1.3 2.9-.9 3.7.9 0 .1.1.2.1.3 0 .4-2.1 1.9-2.5 1.9-.4-.1-.8-.2-1.3-.3-.4-.1-1.1 0-.9-.7.2-.6.4-1.3 1.2-1 .5.2.9.5 1.5 0zM79.6 212.3c1.4-.1 2.6.7 3.8 1.2.1.1.3.3.3.4 0 .3-.2.4-.4.5-.2.1-.5.1-.7.1-1.3-.3-2.6-.7-3.9-1.1-.3-.1-.6-.3-.6-.6 0-.5.5-.5.8-.5h.7zM100.3 181.2c-.8 0-1.5-.3-2.3-.6-.3-.1-.5-.4-.4-.7.1-.4.4-.5.6-.6.7-.2 2.6.2 3.1.8.2.2.2.4.1.7-.3.4-.7.4-1.1.4zM12.8 165.7c.7.2.7.8 1 1.1 1.5 1.4 1.5 1.6-.5 3.2.2-1.5-1.2-2.7-.5-4.3zM105.8 185.1c0 .3.1.6.1.9.4 1.2.3 1.4-.9 1.5-.8 0-1.6.2-2.3-.7 1-.5 2.2-.6 2.7-1.9.2.1.3.2.4.2zM64.2 168c0 .8-.7 1.6-1.4 1.6-.5 0-1-.2-1.1-.8-.1-.7 1-1.8 1.8-1.8.5.2.7.5.7 1zM61.3 223.7c-.4 0-1-.1-1-.7-.1-.6.5-.8 1-.9.8-.1 2.5.4 2.5.7.1.5-1.3 1-2.5.9zM69.2 168.9c-.8 0-1.5-.5-1.5-1.1 0-.6.4-.9.9-.9s1.8.8 1.7 1.2c.1.8-.6.8-1.1.8zM84.1 218.4c-.7 0-1.4.3-2.2.2-.4-.1-.8-.3-.8-.8 0-.4.4-.5.8-.6 1.5-.5 1.9-.3 2.4 1.1-.1-.1-.1 0-.2.1zM73.4 215.2c-.6 0-1.2-.2-1.2-.9 0-.5.5-.7.9-.7.6 0 1.1.2 1.2.9-.1.6-.6.7-.9.7zM97.9 176.3c-.1.7-.7.8-1.2.8s-1.1-.1-1.1-.7c.1-.8.8-.8 1.4-.8.4 0 .8.1.9.7zM35.4 211.8c-.3 0-.6-.2-.6-.5-.1-.5.8-1.1 1.4-1.1.2 0 .5.1.5.4.1.4-.7 1.1-1.3 1.2zM7.5 169c.8-.1.8.7 1.3 1.1.4.3.4.7-.1 1.1-.5.3-.9.2-1.3-.3-.4-.7 0-1.3.1-1.9zM98.3 174.4c-.4 0-.6-.2-.6-.5 0-.5.1-1 .7-1.1.3-.1.6.1.7.4 0 .6-.3 1-.8 1.2zM105.2 190.2c.3 0 .7.2.7.5.1.5-.4.7-.8.7-.3 0-.6-.2-.6-.6 0-.4.4-.5.7-.6zM95.5 202.7c-.2.5-.6.6-1 .5-.4-.1-.7-.3-.6-.8.1-.4.5-.5.9-.4.4.1.7.2.7.7zM88.9 211.9c0 .4-.4.6-.7.6-.4 0-.8-.2-.8-.6 0-.5.3-.6.7-.6.4 0 .7.2.8.6zM101.1 178.1c-.4 0-.8-.2-.9-.7-.1-.4.2-.6.5-.6.5 0 .8.3.9.8 0 .3-.1.5-.5.5zM97.2 170.1c0 .2.1.4.1.5-.1.6-.5.9-1.1.9-.3 0-.5-.2-.5-.5 0-.6.5-.7 1-.9h.5zM69.6 170.6c-.2.4-.4.6-.9.5-.3 0-.5-.3-.4-.5 0-.5.4-.6.8-.5.3 0 .5.2.5.5zM14.6 171.8c.4 0 .5.3.5.6.1.3 0 .5-.3.5-.4.1-.5-.2-.5-.5s.1-.5.3-.6zM89.6 168.3c-.1.2-.4.3-.6.2-.3-.1-.6-.3-.5-.6.1-.3.4-.3.6-.2.3 0 .6.2.5.6zM15.1 148.7c0 .2-.1.4-.4.5-.3.1-.6-.1-.6-.5 0-.3.2-.4.5-.4.2 0 .4 0 .5.4zM93.8 168.6c0 .5-.2.7-.5.7-.2 0-.5-.1-.5-.4 0-.4.2-.6.5-.6.2 0 .5.1.5.3zM14.1 151.5c0 .3-.3.4-.5.4-.3 0-.5-.3-.4-.6.1-.3.3-.4.5-.3.3 0 .4.2.4.5zM67.9 223.2c-.1.3-.3.5-.6.5s-.4-.3-.4-.5c0-.3.2-.5.6-.5.2 0 .3.3.4.5zM27.2 212.6c0-.4.2-.6.5-.6s.5.1.5.4c0 .4-.2.6-.5.6-.2 0-.4-.1-.5-.4zM71.9 167.2c-.1.3-.2.4-.5.4-.2 0-.3-.1-.3-.3 0-.3.2-.4.5-.4.1-.1.3 0 .3.3zM34.2 220.1c.1-.3.1-.6.5-.7.3 0 .7-.1.7.3 0 .3-.3.3-.5.4h-.7zM14.2 162.4c-.2 0-.3-.1-.3-.4 0-.3.2-.4.5-.5.3 0 .5.1.4.4-.1.4-.3.5-.6.5zM57.9 170.4c.2 0 .4-.1.5-.3.3.1.6.2.6.5 0 .1-.2.3-.3.3-.6.3-.7-.1-.8-.5zM98.3 189c.2.1.6 0 .5.4 0 .1-.3.2-.4.2-.2 0-.5-.1-.5-.4 0-.1.3-.2.4-.2zM36.2 134.1c0 .2-.1.3-.3.3-.2 0-.4-.1-.4-.1-.1-.3.1-.4.4-.4.1 0 .3 0 .3.2zM99 200c-.2 0-.3-.1-.3-.3 0-.2.2-.3.4-.2.1 0 .2.1.3.2-.1.2-.3.3-.4.3zM30.2 204.6c-.1.2-.2.2-.4.2-.2-.1-.3-.2-.2-.4 0-.1.2-.1.3-.1.2 0 .4.1.3.3zM95.7 179.1c-.2 0-.2-.2-.2-.4 0-.3.1-.5.4-.4.2 0 .2.2.2.4-.1.3-.2.4-.4.4zM22.9 142c-.1 0-.3.2-.4.2-.3 0-.4-.2-.3-.5.1-.2.3-.2.4-.1.3.1.4.2.3.4zM65.6 174.3c-.1 0-.2.1-.3.1-.2 0-.3-.2-.1-.3 0-.1.2-.1.3-.1 0 .1 0 .2.1.3zM83.1 216.3c-.2 0-.3-.1-.3-.3 0-.2.2-.3.4-.2.1 0 .2.1.2.2.1.2-.1.3-.3.3zM66.4 172.1l-.2-.2c0-.2.2-.3.3-.2.1 0 .1.2.1.3 0 .1-.1.1-.2.1zM19.5 148.9c-.1 0-.2-.1-.3-.1 0-.1.1-.3.2-.3s.2 0 .3.1c0 .1-.1.2-.2.3zM330.2 101.7c0 .3 0 .6-.1.9-.2.6-.6.8-1.1.4-.4-.3-.7-.6-1.2-.8-.9-.4-1-.8-.4-1.5.5-.6 1-1.5 1.9-1.2.9.3.9 1.3.9 2.2zM330.7 110.5c.6 0 .8.3.9.8.2.9 0 1.9.4 2.9.1.4-.3.6-.7.6-.5 0-.8-.3-1-.7-.3-.7-.5-1.5-.6-2.3-.2-.7.4-1.1 1-1.3zM279.8 108c-.6 0-.9-.5-.9-1.1 0-.8.6-1.1 1.3-1.1.6 0 1.1.2 1.3.8.1.6-.8 1.4-1.7 1.4zM299.8 119.4c-.3-.1-.5-.2-.4-.5 0-.3.3-.4.5-.3.3 0 .5.2.4.5 0 .2-.2.3-.5.3zM369.2 92.1c.1.6-.1.8-.4 1-1.2.7-2.6.6-3.9 1-.7.2-1.2-.7-.6-1.4.4-.5.7-1.1 1-1.7.2-.5.7-.8 1.2-1 1.1-.5 1.7-.2 2.2.9.3.4.4 1 .5 1.2zM367 98.6c.6.1.9.4.9 1.1 0 .7-.9 1.4-1.5 1.3-.7-.1-.9-.6-.9-1.2.1-.6.8-1.2 1.5-1.2zM418.6 79c.2 0 .3.1.4.3 0 .3-.3.3-.5.3s-.3-.1-.3-.3c-.1-.2.2-.3.4-.3zM474.3 86.2c-.1.7-.5.9-1.1.9-.4 0-.9 0-.9-.6 0-.4.7-1.2 1.2-1.1.4 0 .7.3.8.8zM427.4 127.4c-.4 0-.7-.2-.7-.5 0-.5.4-.6.8-.5.3 0 .6.2.5.6-.1.4-.4.4-.6.4zM486.6 108.1c-.2 0-.4 0-.4-.2-.1-.3.1-.5.3-.6.2-.1.4.1.4.2.1.3-.1.5-.3.6zM191.4 122.2c-.7 0-1.3-.1-1.7-.8-.2-.3.1-.6.3-.8.6-.5 1.2-.6 1.8-.2.4.2.9.5.9 1-.2.7-.8.8-1.3.8zM196.6 125.2c-.1.5-1.1.8-1.3.4-.3-.7-.8-.7-1.4-.9-.1 0-.2-.3-.2-.4 0-.3.3-.5.5-.5.8.3 1.5.9 2.4 1v.4zM207.9 65.7c.5 0 .9.1.9.6 0 .4-.4.4-.7.4-.3 0-.7.1-.8-.3 0-.5.5-.5.6-.7zM205.4 62.3h.4c.4.1.8-.4 1.1.2.1.2-.1.3-.3.4-.6.1-1.1.2-1.2-.6zM213 132c0 .3-.2.4-.4.4-.3 0-.4-.2-.4-.4s.2-.3.4-.3c.1 0 .3.1.4.3zM245.8 78.6c0 .2 0 .5-.2.6-.3.2-.6.2-.8-.1-.2-.4.1-.5.5-.6.1 0 .3.1.5.1zM160.6 119.2c-.1.6-.5.8-1.1.5-.5-.2-.9-.6-1.4-.9-.3-.3-.7-.6-.4-1.1.3-.5.8-.3 1.2-.3 1 .3 1.7 1 1.7 1.8zM107.1 127.3c-.6-.2-1.1-.6-1.2-1.2-.1-.6.6-.5.9-.4.6 0 1.1.3 1 1 .1.4-.3.5-.7.6zM161.9 110c-.1.6-.6.7-1.1.8-.4 0-.9 0-.9-.6 0-.5.4-.7.9-.8.5-.1.9.1 1.1.6zM118.3 108.8c-.5 0-.7-.3-.7-.7 0-.4.2-.7.6-.8.5 0 .6.4.6.7.1.5-.1.7-.5.8zM109.3 137c-.4-.1-.7-.2-.7-.6 0-.4.3-.6.7-.6.4 0 .7.3.6.7-.1.3-.3.5-.6.5zM155.5 110.4c-.1.3-.3.4-.5.4-.3 0-.6-.2-.6-.6 0-.3.3-.4.5-.4.3.1.6.2.6.6zM109.1 108.6c-.3 0-.5-.1-.5-.4 0-.3.2-.4.5-.5.4 0 .6.2.6.5-.1.3-.4.4-.6.4zM166.3 138.3c.3 0 .5.1.5.4 0 .3-.2.4-.5.4-.1 0-.3-.2-.4-.3-.1-.3.1-.4.4-.5zM137.1 167c.2 0 .3.2.3.4 0 .3-.2.4-.5.4-.2 0-.3-.2-.3-.4.1-.3.3-.5.5-.4zM106.8 111.2c0 .4-.3.6-.7.6-.3 0-.4-.2-.4-.5s.3-.5.6-.5c.2 0 .4 0 .5.4zM103.5 115.9c0 .2-.2.3-.4.3-.3 0-.5-.2-.5-.4s.1-.5.5-.4c.3 0 .5.2.4.5zM105.6 116.2c-.1.1-.1.2-.2.3-.2.1-.4-.1-.4-.3 0-.1.1-.2.2-.3.3 0 .4.1.4.3zM516.6 183c-1.3-.3-2.3-.2-3.3.7-.5.5-1.5.2-2.3.1-.9-.1-1.7-.4-2.5-.4-.4 0-.7-.2-.6-.7.1-.4.4-.6.8-.6.2 0 .5.1.7.1.6.1 1.2 0 1.6-.3 1.6-1.2 3-.8 4.3.3.3.3.9 0 1.3.8zM520.6 182.3c-.9-.1-1.7-.8-2.4-1.7-.2-.2-.2-.5 0-.7.2-.2.4-.2.7-.2.8.3 1.6.5 2.4.8.5.2 1 .4.8 1-.2.7-.7.8-1.5.8zM505.2 182.3h-.8c-.4 0-1 .1-1.1-.5-.1-.6.5-.7 1-.9.3-.1.6-.1.9 0 .6.2 1.5.1 1.4.8 0 1-.9.5-1.4.6zM529.5 121.8c-.1.5-.4.8-1 .9-.7 0-1.4-.1-1.7-.8-.2-.3.1-.6.4-.7.6-.4 1.2-.5 1.9-.1.2.1.4.4.4.7zM526.2 161.5c-.9.9-1.7 1.5-2.8 1-.3-.1-.6-.3-.5-.6.1-.2.3-.4.5-.5.8-.2 1.7-.2 2.8.1zM520.4 186h-.3c-.6-.1-1.3 0-1.4-.8-.1-.4.4-.6.7-.6.8-.2 1.8.2 1.8.7.2.8-.4.7-.8.7zM528.6 160.9c.8 0 1.6.6 1.5 1-.1.5-.6.6-1 .6-.6 0-1.2-.1-1.3-.7-.1-.7.5-.8.8-.9zM518.1 131.1c-.6 0-1.1-.1-1.2-.7 0-.6.3-.9.9-.9.5 0 1 .3 1.1.8.2.7-.4.8-.8.8zM531.7 172.8c-.9.5-1.5.4-2.1 0-.2-.1-.4-.3-.3-.6.1-.3.3-.4.6-.4.6 0 1.2.3 1.8 1zM520.3 151.9c-.4 0-.7-.2-.6-.6 0-.5.4-.7.9-.7.3 0 .6.2.6.6 0 .5-.4.6-.9.7zM501.7 179.7c-.2-.8 0-1.1.5-1.3 0 0 .2.1.2.2.1.5-.3.8-.7 1.1zM513.9 131c0 .2-.1.4-.3.4-.3.1-.5-.1-.5-.4 0-.2.2-.3.4-.3s.4.1.4.3zM535.4 126.5c0 .2-.1.3-.4.3-.3 0-.4-.2-.5-.4 0-.2.2-.3.4-.3.4 0 .5.2.5.4zM524.6 180.5c-.1.2-.3.2-.4.1-.1-.1-.1-.3 0-.4.1-.1.2-.1.3-.1.2 0 .2.2.1.4zM512.4 127.6c.1 0 .2.1.3.1 0 .1-.1.2-.1.3-.1.1-.3 0-.3-.1s0-.2.1-.3zM561.4 228.5c-.1.4-.4.5-.7.5-.9-.2-1.8-.3-2.7-.6-.5-.1-.9-.5-.8-1.1.1-.7.7-1 1.3-1.2.5-.1 1.1-.1 1.3.4.2.8.6 1.4 1.5 1.6 0 .1 0 .3.1.4zM551.1 226c-.7-.2-1.4-.3-2-.5-.2-.1-.4-.2-.5-.5-.1-.3.1-.5.3-.6.8-.6 1.9-.6 2.7.1.3.3.7.6.5 1.1-.2.5-.7.4-1 .4zM572.3 219.4c.3 0 1.1-.2 1.1.6.1.6-.6.7-1.1.8-.7.1-1.4.5-2.2.2-.3-.1-.6-.3-.5-.7 0-.3.2-.4.5-.5.6-.2 1.3-.4 2.2-.4zM541.6 214.7c.6.1 1.2.3 1.8.7.4.3.8.7.5 1.2-.3.5-.8.4-1.3.2-.6-.2-1-.7-1.5-1.1-.2-.2-.3-.4-.2-.6 0-.3.3-.4.7-.4zM566.4 177.4c-.5 0-1.1 0-1.2-.5-.1-.5.3-.9.8-1.1.7-.3 1.4-.2 2.1.3.2.1.2.3.1.5-.4.8-1.2.8-1.8.8zM572.9 196.6c-.2.6-.7.6-1.2.5-.6-.1-1.1-.4-1-1.1.1-.5.5-.7 1-.7.7.1 1.3.7 1.2 1.3zM549.8 219.4c-.1.6-.5.7-1 .7s-1-.1-1.1-.8c0-.6.5-.6.9-.6.7 0 1.1.1 1.2.7zM535.7 203.3c.5 0 .9.3 1 .8.1.4-.3.7-.7.7-.5 0-.8-.2-.9-.7 0-.5.2-.7.6-.8zM537.9 217l.3-.3c.4-.2.9-.4 1.4-.1.1 0 .1.3 0 .3-.5.7-1 .5-1.7.1zM571 198.7c-.1.3-.3.4-.5.4-.5 0-.8-.2-.9-.7 0-.2.2-.4.5-.4.5.1.8.3.9.7zM567.5 220.3c-.2.5-.6.6-1 .5-.3 0-.6-.2-.6-.5.1-.6.6-.5 1-.5.3 0 .6.1.6.5zM566.4 178.6c-.1.4-.3.6-.6.6-.4.1-.8-.1-.8-.5-.1-.4.2-.5.6-.5.3 0 .7.1.8.4zM534.9 209c.4 0 .7.2.8.6 0 .2-.1.4-.3.4-.5 0-.8-.2-.8-.7-.1-.2.1-.3.3-.3zM601 186.2c-.1.3-.2.6-.6.5-.3-.1-.4-.3-.3-.5 0-.3.3-.4.5-.4.3-.1.4.1.4.4zM602.7 184.8c0 .2-.2.3-.4.3s-.4 0-.4-.2.2-.3.3-.3c.3 0 .5 0 .5.2zM561.2 176.8c-.1.2-.2.3-.4.2-.2 0-.3-.2-.2-.4 0-.1.2-.2.3-.2.2.1.3.2.3.4zM599.9 188.3c-.1.3-.3.3-.6.3-.2 0-.4-.1-.3-.4.1-.3.3-.3.6-.3.1.1.3.2.3.4zM590.9 169.4c0 .2-.2.3-.3.3-.3 0-.5-.1-.4-.4 0-.1.3-.2.4-.2.1-.1.3 0 .3.3zM590.9 171.5c-.2 0-.4-.1-.4-.2 0-.2.1-.3.3-.3.2 0 .3.1.4.3.1.2-.1.2-.3.2zM592.3 174.8c-.1 0-.2-.1-.3-.1 0-.1.1-.2.2-.3.1-.1.2 0 .3.1 0 .1 0 .2-.2.3zM573.5 199.1c.1.1.2.1.2.2s-.1.2-.2.2l-.1-.1c0-.1 0-.2.1-.3z"/><path fill="#9CD093" d="M17.6 152.1c-.1.2-.1.4-.3.3-.1 0-.1-.2-.1-.3 0-.2.1-.4.3-.3 0 0 0 .2.1.3z"/></svg>