<?xml version="1.0" encoding="iso-8859-1"?>
<!-- Generator: Adobe Illustrator 19.1.0, SVG Export Plug-In . SVG Version: 6.00 Build 0)  -->
<svg version="1.1" id="Capa_1" xmlns="http://www.w3.org/2000/svg" xmlns:xlink="http://www.w3.org/1999/xlink" x="0px" y="0px"
	 viewBox="0 0 496.676 496.676"
	 style="enable-background:new 0 0 496.676 496.676;"
	 xml:space="preserve">
<path d="M404.476,419.109h-23.988l0.248-31.099h24.236c4.875,0,6.878-3.944,6.878-8.772l-0.497-339.802
	c0-4.86-3.944-8.803-8.819-8.803H170.018c-4.86,0-8.803,3.959-8.803,8.803v6.738h-44.218v-8.679C116.995,12.809,137.071,0,161.773,0
	h235.902c24.717,0,44.793,20.075,44.793,44.761v329.602C442.467,399.034,429.177,419.109,404.476,419.109L404.476,419.109z
	 M364.652,106.803v345.112c0,24.686-20.075,44.761-44.761,44.761H98.986c-24.686,0-44.777-20.075-44.777-44.761V106.803
	c0-24.702,20.091-44.777,44.777-44.777h220.92C344.577,62.026,364.652,82.102,364.652,106.803L364.652,106.803z M94.515,93.141
	c-5.061,0-9.191,4.068-9.191,9.052v354.8c0,4.984,4.13,9.036,9.191,9.036h229.847c5.061,0,9.207-4.052,9.207-9.036V102.208
	c0-4.984-4.145-9.052-9.207-9.052H94.515L94.515,93.141L94.515,93.141z M294.955,419.016H124.169c-4.285,0-7.763-3.478-7.763-7.763
	s3.478-7.763,7.763-7.763h170.786c4.285,0,7.763,3.478,7.763,7.763S299.241,419.016,294.955,419.016z M294.955,372.438H124.169
	c-4.285,0-7.763-3.478-7.763-7.763s3.478-7.763,7.763-7.763h170.786c4.285,0,7.763,3.478,7.763,7.763
	S299.241,372.438,294.955,372.438z M294.955,325.86H124.169c-4.285,0-7.763-3.478-7.763-7.763s3.478-7.763,7.763-7.763h170.786
	c4.285,0,7.763,3.478,7.763,7.763S299.241,325.86,294.955,325.86z M294.955,279.282H124.169c-4.285,0-7.763-3.478-7.763-7.763
	s3.478-7.763,7.763-7.763h170.786c4.285,0,7.763,3.478,7.763,7.763S299.241,279.282,294.955,279.282z M294.955,232.704H124.169
	c-4.285,0-7.763-3.478-7.763-7.763s3.478-7.763,7.763-7.763h170.786c4.285,0,7.763,3.478,7.763,7.763
	S299.241,232.704,294.955,232.704z M236.733,170.6H131.932c-8.586,0-15.526-6.956-15.526-15.526s6.94-15.526,15.526-15.526h104.801
	c8.586,0,15.526,6.956,15.526,15.526S245.319,170.6,236.733,170.6L236.733,170.6z" fill="white"/>
</svg>
