<?xml version="1.0" encoding="utf-8"?>
<!-- Generator: Adobe Illustrator 19.2.0, SVG Export Plug-In . SVG Version: 6.00 Build 0)  -->
<svg version="1.2" baseProfile="tiny" id="Layer_1" xmlns="http://www.w3.org/2000/svg" xmlns:xlink="http://www.w3.org/1999/xlink"
	 x="0px" y="0px" viewBox="0 0 614 253.4" xml:space="preserve">
<g>
	<path fill="#9CD093" d="M84.1,218.4c0.2,0.9-0.4,1.3-1.1,1.7c-4.8,3.2-10.1,5.5-15.7,6.6c-8.5,1.7-16.8,0.9-24.8-2.2
		c-0.3-0.1-0.6-0.3-0.9-0.4c0.2-0.1,0.3-0.2,0.5-0.2c0.3-0.1,0.6-0.3,0.5-0.6c-0.1-0.4-0.5-0.5-0.9-0.4c-0.1,0-0.3,0-0.3,0.1
		c-0.7,1.3-1.5,0.6-2.3,0.1c-1.6-0.9-3.5-1.4-4.8-2.9c0.2,0,0.5,0,0.7,0c0.2,0,0.6-0.1,0.5-0.4c-0.1-0.4-0.4-0.3-0.7-0.3
		c-0.4,0.1-0.4,0.4-0.5,0.7c-2.4-1.2-4.6-2.7-6.7-4.4c-6.2-5.1-11.5-11-15.5-18c-1.6-2.9-2.9-5.9-3.9-9.1c-0.8-2.5-1.4-5-2-7.5
		c-0.1-0.6-0.3-1.2,0.6-1.4c0.5-0.1,0.3-0.7,0-0.8c-1.1-0.4-1.1-1.3-1.1-2.2c0-1.7,0-3.5,0-5.2c0-1.9,0-1.9,1.9-2.4
		c-0.1,0.6-0.6,1.2,0,1.9c0.4,0.5,0.8,0.6,1.3,0.3c0.5-0.3,0.4-0.7,0.1-1.1c-0.4-0.4-0.4-1.2-1.3-1.1c0.2-0.5,0.1-1.1,0.1-1.6
		c0-0.5-0.1-0.9-0.7-0.9c-1,0-0.9-0.6-0.8-1.3c0.6-3.2,1.3-6.4,2.5-9.5c0.2-0.4,0.2-0.9,0.9-1c1.1-0.1,1.2-0.2,0.6-1.1
		c-0.3-0.5-0.3-0.9-0.1-1.3c2.6-5.3,5.8-10.3,10.1-14.5c1.7-1.6,3.2-3.4,4.9-5c3.1-2.9,6.5-5.5,10.1-7.7c0.9-0.5,1.7-1.2,2.8-1.3
		c0.2,0,0.5-0.1,0.7-0.3c1.1-1.5,3-1.7,4.5-2.5c0.6-0.3,1.2-0.2,1.7,0.3c2.7,2.8,5.4,5.6,8.2,8.5c-0.1,0.4-0.6,0.3-1,0.4
		c-2.4,0.6-4.7,1.5-7,2.5c-0.4,0.2-0.8,0.4-1.2,0.3c0.3-0.8,1.1-0.9,1.7-1.3c0.7-0.4,0.9-0.9,1.1-1.6c0.1-0.5,0-0.8-0.6-0.9
		c-1.4-0.2-2.4,1-3.8,1c0,0-0.1,0.1-0.1,0.1c0,1.1-0.7,1.4-1.7,1.6c-0.6,0.1-0.8,0.7-0.7,1.3c0.2,0.6,0.8,0.5,1.2,0.4
		c0.3,0,0.6-0.2,0.8-0.3c0.6-0.5,1.3-0.4,1.9-0.4c-1.7,1.4-3.8,2.1-5.6,3.4c-0.7,0.5-0.8-0.3-1.1-0.5c-0.3-0.2-0.6-0.2-0.8,0.1
		c-0.2,0.2,0,0.5,0.2,0.6c0.7,0.5,0.3,0.8-0.1,1.1c-1.3,1-2.6,2-3.9,3.1c-4.5,3.7-8.4,7.9-11.3,13.1c-0.1,0.3-0.3,0.6-0.6,0.6
		c0-0.8-0.6-1.5-0.8-2.2c-0.3-1-1.4-0.8-2.2-1.1c-0.6-0.3-0.8,0.3-1.2,0.6c-0.8,0.8-1.4,1.7-2.1,2.5c-0.8,1-0.8,1.4,0.4,2.3
		c0.4-1.2,1-1.7,1.6-1.5c1,0.4,0.4,1.2,0.4,1.8c0.5,0.1,0.5-0.5,0.8-0.4c1.2,0.2,1.7-0.7,2.4-1.4c0.2-0.2,0.4-0.5,0.7-0.5
		c0.1,0.5-0.2,1-0.4,1.4c-4.6,9.9-4.4,19.9-0.5,30c1.8,4.5,4.4,8.6,7.6,12.2c4.7,5.4,10,10.1,16.4,13.3c4,2,8.2,3.5,12.6,4
		c1.1,0.1,2.1,0.2,3.1,0.9c1,0.7,1.8-0.9,3-0.7c0.9,0.2,1.8-0.1,2.7-0.3c0.8-0.1,1.6-0.5,1.7,0.8c0,0.3,0.4,0.4,0.7,0.4
		c0.4-0.1,0.5-0.4,0.4-0.7c-0.3-1.1,0.5-1.2,1.2-1.4c7.4-2.3,13.3-6.7,18.3-12.4c3.6-4.1,6.5-8.5,8.4-13.6c0.1-0.3,0.2-0.7,0.4-1
		c0.4-0.9,0.2-1.6-0.5-2.3c-3.3-3.2-6.6-6.5-9.9-9.7c-2.6-2.5-5.2-5.1-7.8-7.6c-0.4-0.4-0.9-0.8-1.3-1.3c-2.6,2-4.7,4.5-6.9,6.9
		c-2.6,2.7-5.2,5.3-7.7,8c-0.7,0.7-1.1,0.5-1.6-0.1c-1.9-2-3.9-3.9-5.9-5.8c-0.6-0.6-0.7-1.1,0-1.6c1.3-1,1.9-2.6,3.5-3.2l0,0
		c0.1,0.3,0.2,0.7,0.7,0.6c0.1,0,0.3-0.2,0.3-0.3c0-0.4-0.3-0.4-0.6-0.5l-0.1-0.1c0.1-0.6,0.6-0.9,1-1.3
		c5.6-5.7,11.1-11.4,16.7-17.1c0.2-0.2,0.4-0.4,0.6-0.7c0.5-0.5,0.9-0.5,1.4,0c4.3,4.3,8.7,8.5,13.1,12.8c0.4,0.3,0.7,0.7,0.6,1.3
		c-0.3,1.4,0.8,2,1.7,2.2c1.8,0.3,2.8,1.6,3.9,2.9c-0.2,0-0.4,0-0.5,0.1c-0.5,0.2-1,0.3-1,0.9c0,0.2,0.2,0.5,0.5,0.5
		c0.6,0,1-0.3,1.1-0.9c0-0.2-0.1-0.3-0.1-0.5c1.9,1.8,3.8,3.5,5.7,5.3c2,2,4,4,6.1,6c0.7,0.7,0.8,1.3,0.6,2.3
		c-2.4,8.3-6.4,15.9-11.7,22.7c-1.4,1.7-2.9,3.4-4.3,5.1c-0.5,0.6-1,1.2-2,1c-0.6-0.1-1,0.2-0.7,0.8c0.3,0.6,0,0.9-0.4,1.3
		c-1.4,1.2-2.7,2.3-4.1,3.5c-0.6,0.5-1.2,0.4-1.9,0.3c-0.4-1.4-0.9-1.6-2.4-1.1c-0.4,0.1-0.8,0.2-0.8,0.6c0,0.5,0.4,0.7,0.8,0.8
		C82.7,218.7,83.4,218.4,84.1,218.4z M13,177.3c0.8-0.8,1.4-1.3,1.7-2.3c0.2-0.8-0.1-1.1-0.7-1.4c-0.7-0.3-1.4-0.4-1.7,0.4
		c-0.3,0.8-0.5,1.6-0.7,2.4c-0.1,0.4,0,0.9,0.5,1c0.6,0.1,0.3,0.3,0,0.5c-0.4,0.2-0.6,0.5-0.4,0.9c0.2,0.4,0.6,0.4,0.9,0.4
		c0.8,0,1.8,0.4,2-0.6C14.9,177.7,13.7,177.8,13,177.3z M94.8,173.6c-0.6,0-0.6,0.4-0.9,0.5c-0.6,0.3-1.2,0.7-1.7,0.2
		c-0.5-0.5,0.2-0.9,0.5-1.3c0.3-0.4,0.5-0.7,0-1.1c-0.4-0.4-0.8-0.3-1.2,0c-0.5,0.4-1,0.9-1.5,1.4c-0.6,0.6-0.3,2.4,0.5,2.5
		c1,0.1,2.1,0.4,3.1-0.1C94.6,175.4,94.5,174.5,94.8,173.6z M87.3,171.3c0.2,0.1,0.4,0.1,0.5,0.2c0.5,0.4,1,0.7,1.3-0.1
		c0.3-0.7-0.3-1-0.9-1c-0.9,0-1-0.6-1-1.2c0-0.4,0-0.7,0-1.1c-0.1-0.6-0.5-0.7-0.9-0.5c-0.6,0.3-1.4,1.8-1.2,2.3
		c0.5,0.9,0.7,1.6,0.3,2.6c-0.1,0.3,0,0.6,0.3,0.8c0.4,0.2,0.7,0,1-0.3C87.2,172.6,87,171.9,87.3,171.3z M16.5,185
		c-0.6,0.5-1,0.2-1.4,0.1c-0.9-0.3-1.1,0.4-1.2,1c-0.2,0.8,0.5,0.6,0.9,0.7c0.4,0.1,0.8,0.2,1.3,0.3c0.4,0.1,2.5-1.5,2.5-1.9
		c0-0.1,0-0.2-0.1-0.3c-0.8-1.8-2.3-2.2-3.7-0.9C15,184.7,15.9,184.3,16.5,185z M79.6,212.3c-0.2,0-0.5,0-0.7,0
		c-0.4,0-0.8,0-0.8,0.5c0,0.3,0.3,0.5,0.6,0.6c1.3,0.4,2.6,0.8,3.9,1.1c0.2,0.1,0.5,0,0.7-0.1c0.2-0.1,0.5-0.2,0.4-0.5
		c0-0.2-0.2-0.4-0.3-0.4C82.2,213,81,212.2,79.6,212.3z M100.3,181.2c0.4,0,0.9,0,1.1-0.5c0.1-0.2,0.1-0.5-0.1-0.7
		c-0.5-0.6-2.4-1-3.1-0.8c-0.3,0.1-0.6,0.2-0.6,0.6c-0.1,0.4,0.1,0.6,0.4,0.7C98.7,180.8,99.5,181.2,100.3,181.2z M12.8,165.7
		c-0.7,1.6,0.8,2.7,0.6,4.2c1.9-1.6,2-1.7,0.5-3.2C13.5,166.5,13.5,166,12.8,165.7z M105.8,185.1c-0.1-0.1-0.2-0.2-0.3-0.3
		c-0.4,1.3-1.7,1.4-2.7,1.9c0.7,0.9,1.5,0.7,2.3,0.7c1.1-0.1,1.2-0.3,0.9-1.5C105.9,185.7,105.9,185.4,105.8,185.1z M64.2,168
		c0-0.5-0.2-0.8-0.7-0.9c-0.7-0.1-1.9,1.1-1.8,1.8c0.1,0.6,0.5,0.8,1.1,0.8C63.5,169.6,64.2,168.8,64.2,168z M61.3,223.7
		c1.2,0,2.6-0.5,2.5-0.9c-0.1-0.3-1.8-0.9-2.5-0.7c-0.5,0.1-1.1,0.2-1,0.9C60.3,223.6,60.9,223.7,61.3,223.7z M69.2,168.9
		c0.5-0.1,1.1,0,1.2-0.8c0-0.4-1.2-1.2-1.7-1.2c-0.6,0-0.9,0.4-0.9,0.9C67.7,168.5,68.4,169,69.2,168.9z M73.4,215.2
		c0.4-0.1,0.9-0.1,0.8-0.7c0-0.7-0.6-0.9-1.2-0.9c-0.4,0-0.9,0.2-0.9,0.7C72.2,215.1,72.7,215.2,73.4,215.2z M97.9,176.3
		c0-0.6-0.5-0.7-0.9-0.7c-0.6,0-1.4,0-1.4,0.8c0,0.6,0.6,0.7,1.1,0.7C97.2,177.1,97.7,177,97.9,176.3z M35.4,211.8
		c0.6,0,1.4-0.7,1.3-1.2c0-0.3-0.3-0.4-0.5-0.4c-0.7,0-1.5,0.6-1.4,1.1C34.8,211.6,35.1,211.7,35.4,211.8z M98.3,174.4
		c0.5-0.2,0.8-0.6,0.7-1.2c0-0.3-0.3-0.5-0.7-0.4c-0.6,0.2-0.7,0.6-0.7,1.1C97.7,174.2,97.8,174.5,98.3,174.4z M105.2,190.2
		c-0.4,0.1-0.7,0.2-0.7,0.6c0,0.4,0.3,0.5,0.6,0.6c0.5,0,0.9-0.2,0.8-0.7C105.9,190.4,105.6,190.2,105.2,190.2z M95.5,202.7
		c0-0.4-0.3-0.6-0.7-0.7c-0.4-0.1-0.8,0-0.9,0.4c-0.1,0.4,0.2,0.7,0.6,0.8C94.9,203.3,95.3,203.2,95.5,202.7z M88.9,211.9
		c-0.1-0.4-0.4-0.7-0.8-0.6c-0.4,0-0.8,0.2-0.7,0.6c0,0.4,0.4,0.6,0.8,0.6C88.6,212.6,88.9,212.4,88.9,211.9z M101.1,178.1
		c0.3,0,0.5-0.2,0.5-0.5c0-0.5-0.4-0.7-0.9-0.8c-0.3,0-0.6,0.2-0.5,0.6C100.3,177.9,100.7,178.1,101.1,178.1z M69.6,170.6
		c0-0.3-0.2-0.4-0.5-0.5c-0.4-0.1-0.8,0-0.8,0.5c0,0.2,0.1,0.5,0.4,0.5C69.1,171.2,69.4,170.9,69.6,170.6z M14.6,171.8
		c-0.3,0.1-0.3,0.4-0.3,0.6c0,0.3,0.1,0.6,0.5,0.5c0.3-0.1,0.4-0.3,0.3-0.5C15.1,172.1,15,171.8,14.6,171.8z M89.6,168.3
		c0.1-0.4-0.2-0.5-0.5-0.6c-0.2-0.1-0.5-0.1-0.6,0.2c-0.1,0.4,0.2,0.5,0.5,0.6C89.3,168.6,89.5,168.5,89.6,168.3z M15.1,148.7
		c-0.1-0.3-0.3-0.4-0.5-0.4c-0.3,0-0.5,0.1-0.5,0.4c0,0.3,0.3,0.5,0.6,0.5C14.9,149.1,15.1,148.9,15.1,148.7z M93.8,168.6
		c0-0.2-0.3-0.4-0.5-0.3c-0.3,0-0.5,0.2-0.5,0.6c0,0.3,0.2,0.4,0.5,0.4C93.6,169.3,93.8,169.1,93.8,168.6z M14.1,151.5
		c0-0.3-0.1-0.5-0.4-0.5c-0.3-0.1-0.5,0-0.5,0.3c-0.1,0.4,0.1,0.6,0.4,0.6C13.8,151.9,14,151.7,14.1,151.5z M67.9,223.2
		c0-0.3-0.1-0.5-0.4-0.5c-0.4,0-0.6,0.2-0.6,0.5c0,0.2,0.1,0.5,0.4,0.5C67.6,223.7,67.8,223.5,67.9,223.2z M27.2,212.6
		c0,0.3,0.3,0.4,0.5,0.4c0.3,0,0.6-0.2,0.5-0.6c0-0.3-0.3-0.4-0.5-0.4C27.4,212.1,27.2,212.2,27.2,212.6z M71.9,167.2
		c0-0.2-0.1-0.3-0.3-0.3c-0.3,0-0.4,0.2-0.5,0.4c0,0.2,0.1,0.4,0.3,0.3C71.6,167.6,71.8,167.4,71.9,167.2z M14.2,162.4
		c0.3,0,0.5-0.1,0.5-0.4c0.1-0.3-0.1-0.4-0.4-0.4c-0.3,0-0.4,0.2-0.5,0.5C13.9,162.3,14,162.4,14.2,162.4z M98.3,189
		c-0.1,0.1-0.4,0.1-0.4,0.2c0,0.3,0.3,0.4,0.5,0.4c0.1,0,0.4-0.1,0.4-0.2C98.9,189,98.6,189.1,98.3,189z M36.2,134.1
		c-0.1-0.2-0.2-0.3-0.4-0.3c-0.2,0-0.5,0.2-0.4,0.4c0,0.1,0.3,0.1,0.4,0.1C36.1,134.4,36.3,134.3,36.2,134.1z M99,200
		c0.2,0,0.4-0.1,0.3-0.3c0-0.1-0.2-0.2-0.3-0.2c-0.2,0-0.4,0-0.4,0.2C98.6,199.9,98.8,200,99,200z M30.2,204.6
		c0-0.2-0.1-0.3-0.3-0.3c-0.1,0-0.2,0.1-0.3,0.1c-0.1,0.2,0,0.3,0.2,0.4C30,204.9,30.2,204.8,30.2,204.6z M95.7,179.1
		c0.3,0,0.3-0.2,0.4-0.3c0-0.2,0-0.4-0.2-0.4c-0.3-0.1-0.4,0.1-0.4,0.4C95.4,179,95.5,179.1,95.7,179.1z M22.9,142
		c0.1-0.3-0.1-0.4-0.2-0.4c-0.2-0.1-0.4,0-0.4,0.1c-0.1,0.3,0,0.4,0.3,0.5C22.7,142.2,22.8,142.1,22.9,142z M65.6,174.3
		c0-0.1-0.1-0.2-0.1-0.3c-0.1,0-0.2,0-0.3,0.1c-0.1,0.2,0,0.3,0.1,0.3C65.4,174.4,65.5,174.4,65.6,174.3z M83.1,216.3
		c0.2,0,0.3-0.1,0.3-0.3c0-0.1-0.1-0.2-0.2-0.2c-0.2-0.1-0.3,0-0.4,0.2C82.8,216.2,82.9,216.3,83.1,216.3z M66.4,172.1
		c0.1,0,0.2-0.1,0.3-0.1c0-0.1,0-0.2-0.1-0.3c-0.2-0.1-0.3,0-0.3,0.2C66.2,172,66.3,172.1,66.4,172.1z M19.5,148.9
		c0.1-0.1,0.2-0.2,0.1-0.3c-0.1-0.1-0.2-0.2-0.3-0.1c-0.1,0-0.1,0.2-0.2,0.3C19.2,148.8,19.3,148.8,19.5,148.9z"/>
	<path fill="#9CD093" d="M319.8,57.9c0.1-2.4,0-4.7-0.1-7.1c0-0.6-0.1-1.1-0.1-1.7c-0.2-7.2-0.3-14.3-0.6-21.5
		c-0.2-4.1-0.3-8.1-0.3-12.2c0-1.6,0-1.6,1.6-1.7c2.8-0.1,5.6-0.1,8.3-0.1c1.5,0,1.5,0,1.5,1.6c0.1,5.5,0.2,11.1,0.4,16.6
		c0.3,8.7,0.5,17.4,0.8,26.1c0.1,3.8,0.2,7.5,0.3,11.3c0.3,8.7,0.6,17.4,0.8,26.1c0,1.7,0.3,3.3,0.2,5c-0.5,0.3-0.9-0.7-1.3,0
		c-0.3,0.6-0.5,1.3-0.3,2c0.3,0.8,0.9,0.2,1.5,0.3c0.1,0.2,0.2,0.3,0.2,0.5c0.1,5.1,0.3,10.1,0.4,15.2c0,1.8,0,1.8-1.6,1.8
		c-2.8,0.1-5.7,0.1-8.5,0.1c-0.9,0-1.4-0.3-1.3-1.3c0.1-1.2-0.4-2.5,0.7-3.5c0.1-0.1,0.1-0.5,0-0.7c-1.2-1.4-0.7-3.1-1-4.7
		c-0.1-0.5-0.1-1-0.1-1.6c-0.7,0.4-0.9,1-1.2,1.5c-4.5,7.3-11,11.4-19.5,12.5c-2.3,0.3-4.6,0.3-6.8,0.3c-0.7,0-1.4,0-2-0.4
		c-0.2-0.1-0.5-0.2-0.7-0.2c-5.5-0.1-9.9-2.7-13.8-6.2c-5.5-4.9-8.5-11.3-10-18.4c-1.2-5.8-1.4-11.7-0.9-17.7
		c0.5-5.6,1.9-10.9,4.5-15.9c4-7.4,9.8-12.8,18-15.2c5.6-1.6,11.3-1.9,17-0.5c5.2,1.2,9.3,4.1,12.5,8.4c0.3,0.4,0.7,0.9,1,1.3
		C319.5,57.9,319.6,57.9,319.8,57.9z M278,85c0,2.2,0.1,4.4,0.4,6.6c0.7,5.2,2.3,10,5.6,14.1c3.3,4,7.4,6.4,12.6,6.9
		c1.2,0.1,2.4-0.2,3,1.4c0.4,0.9,1.8,0.6,1.8-0.2c-0.1-1.2,0.5-1.1,1.3-1.2c4.2-0.6,7.9-2.3,11-5.3c5.5-5.4,7.3-12.2,7.2-19.7
		c0-1.7-0.2-3.3-0.2-5c-0.1-2.7,0-5.4-0.4-8.1c-0.7-5-3-9.2-6.7-12.6c-5.6-4.9-12.1-5.8-19.1-4.1c-7.2,1.7-11.6,6.6-14.3,13.3
		C278.5,75.5,277.9,80.2,278,85z M330.2,101.7c0-0.9-0.1-1.9-0.9-2.2c-0.9-0.3-1.4,0.6-1.9,1.2c-0.6,0.7-0.5,1.1,0.4,1.5
		c0.5,0.2,0.8,0.6,1.2,0.8c0.5,0.4,0.9,0.2,1.1-0.4C330.2,102.3,330.2,102,330.2,101.7z M330.7,110.5c-0.6,0.2-1.1,0.6-1,1.3
		c0.1,0.8,0.4,1.5,0.6,2.3c0.1,0.4,0.5,0.7,1,0.7c0.4,0,0.9-0.2,0.7-0.6c-0.3-1-0.1-2-0.4-2.9C331.5,110.9,331.3,110.5,330.7,110.5z
		 M279.8,108c0.8,0,1.7-0.8,1.6-1.3c-0.2-0.7-0.7-0.8-1.3-0.8c-0.7,0-1.3,0.3-1.3,1.1C278.9,107.5,279.3,108,279.8,108z
		 M299.8,119.4c0.3,0,0.5-0.1,0.6-0.4c0.1-0.3-0.2-0.4-0.4-0.5c-0.3,0-0.5,0-0.5,0.3C299.4,119.2,299.6,119.4,299.8,119.4z"/>
	<path fill="#F79981" d="M369.7,96.9c-1.1,5.3-2.2,10.4-3.3,15.5c-0.8,3.6-1.6,7.2-2.4,10.8c-0.2,0.9-0.4,1.3-1.4,1
		c-2.9-0.7-5.9-1.3-8.8-2c-1.4-0.3-1.5-0.4-1.2-2c1.1-5.1,2.2-10.2,3.3-15.4c3.2-14.7,6.4-29.4,9.5-44.1c2.5-11.6,5-23.1,7.5-34.7
		c0.1-0.4,0.2-0.8,0.3-1.3c0.1-1,0.5-1.2,1.5-1c9.7,2.2,19.4,4,29,6.5c6.6,1.7,12.6,4.6,17.4,9.7c4.3,4.6,6.7,10.2,6.9,16.5
		c0.2,8.2-1.6,15.8-6.6,22.5c-4,5.4-9.3,8.9-15.7,10.9c-0.1-0.2-0.2-0.4-0.2-0.5c0-0.7,0-1.5-0.9-1.6c-0.7-0.1-1.5,0.4-1.6,1
		c-0.2,1.1-0.9,1.2-1.7,1.3c-2.6,0.6-5.2,1.5-8,1.2c-4-0.4-7.9-1.1-11.8-2c-2.8-0.6-5.5-1.2-8.3-1.8c-1.2-0.3-1.2-0.3-1.5,1
		c-0.4,1.5-0.7,3-1,4.5c-0.2,0.7-0.4,1.3-1.3,1.2c-0.1,0-0.2,0-0.4,0.1c-1,0.3-1.4,0.9-1.3,1.8C367.8,97.1,368.1,97.2,369.7,96.9z
		 M394.3,80.5c2,0.1,3.8,0,5.6-0.4c5.7-1.3,10-4.3,12.7-9.5c2.3-4.4,3.1-9,2.8-14c-0.3-4.5-2.2-8.1-5.7-11
		c-3.3-2.8-7.3-4.4-11.4-5.4c-4.7-1.1-9.5-2.1-14.2-3.1c-1.4-0.3-1.4-0.3-1.7,1.2c-2.1,9.6-4.2,19.2-6.3,28.9
		c-0.6,2.8-1.2,5.5-1.8,8.3c-0.3,1.4-0.2,1.5,1.2,1.9c2.3,0.5,4.7,1.1,7,1.6C386.5,79.6,390.4,80.7,394.3,80.5z M369.2,92.1
		c-0.1-0.3-0.3-0.8-0.5-1.3c-0.5-1.1-1.1-1.3-2.2-0.9c-0.5,0.2-1,0.5-1.2,1c-0.3,0.6-0.6,1.2-1,1.7c-0.5,0.7-0.1,1.6,0.6,1.4
		c1.3-0.4,2.7-0.3,3.9-1C369.1,92.9,369.3,92.8,369.2,92.1z M367,98.6c-0.7,0-1.4,0.5-1.5,1.2c0,0.6,0.2,1.1,0.9,1.2
		c0.6,0.1,1.5-0.6,1.5-1.3C368,99.1,367.6,98.7,367,98.6z M418.6,79c-0.2,0-0.5,0-0.5,0.4c0,0.2,0.2,0.3,0.3,0.3
		c0.2,0,0.5,0,0.5-0.3C419,79.1,418.8,79,418.6,79z"/>
	<path fill="#F79981" d="M493.3,104.7c-0.7,0.1-1.6-0.4-1.6,0.5c0,1,1,0.6,1.7,0.7c0.1,3.6-1,7-2.3,10.4c-1.5,3.9-3.4,7.6-5.2,11.4
		c-5,10.8-10.1,21.5-15.2,32.3c-0.1,0.3-0.3,0.5-0.4,0.8c-0.3,0.8-0.7,1-1.5,0.6c-2.7-1.3-5.5-2.6-8.2-3.9c-1.2-0.6-1.2-0.6-0.6-1.8
		c1-2.2,2.1-4.5,3.1-6.7c0.3-0.5,0.6-1,0.6-1.8c-0.8,0-1.3,0.5-1.9,0.8c-7.5,4.4-15.2,4.7-23,1.1c-2.9-1.3-5.6-2.9-7.9-5.1
		c-6.3-5.8-8.1-13.7-5-21.8c1.7-4.5,4.3-8.5,8.3-11.3c3-2.1,6.3-3.2,10-3.5c5.3-0.4,10.4,0.7,15.4,2.3c5.9,1.9,11.8,3.7,17.6,5.5
		c1.5,0.5,1.5,0.5,2.2-1c1.3-3,2.2-6.1,2.2-9.5c0-4.3-1.9-7.6-5.3-10c-3.8-2.6-8-4-12.5-4.7c-4.7-0.8-9.5-0.5-14.1,0.6
		c-0.3,0.1-0.6,0.1-0.9,0c-0.2-0.5,0.2-0.9,0.4-1.3c1.2-2.6,2.5-5.2,3.6-7.9c0.4-0.9,1-1.3,2-1.3c10.5-0.7,20.1,1.9,28.8,7.5
		c3.8,2.5,6.8,5.7,8.5,10C492.9,99.8,493.4,102.2,493.3,104.7z M447.4,117.1c-2.7-0.2-5.6,1.4-7.9,4.4c-1,1.3-1.8,2.8-2.4,4.4
		c-1.6,4.6-0.3,9.7,3.4,12.7c4.6,3.7,9.8,5.6,15.8,4.5c4.5-0.8,8.2-2.9,11.3-6.3c3.1-3.3,4.7-7.5,6.5-11.5c0.5-1,0.3-1.1-0.9-1.5
		c-5.5-1.7-11-3.5-16.6-5.2C454.1,117.7,451.3,117.2,447.4,117.1z M474.3,86.2c-0.1-0.5-0.3-0.8-0.8-0.8c-0.5,0-1.3,0.7-1.2,1.1
		c0,0.6,0.5,0.6,0.9,0.6C473.7,87.1,474.2,86.9,474.3,86.2z M427.4,127.4c0.2,0,0.5,0,0.6-0.4c0.1-0.4-0.2-0.5-0.5-0.6
		c-0.4-0.1-0.8,0.1-0.8,0.5C426.7,127.3,427,127.4,427.4,127.4z M486.6,108.1c0.3-0.1,0.4-0.3,0.3-0.6c-0.1-0.2-0.2-0.3-0.4-0.2
		c-0.3,0.1-0.4,0.3-0.3,0.6C486.2,108,486.4,108.1,486.6,108.1z"/>
	<path fill="#9CD093" d="M205.4,62.3c0.1-0.4,0.5-0.5,0.8-0.6c3.6-1,7.3-1.8,11.1-1.9c10.5-0.1,18.8,4.2,25.1,12.6
		c1.1,1.4,2.1,2.9,2.9,4.5c0.3,0.5,0.7,1,0.5,1.7c-0.2,0-0.4-0.1-0.5,0c-0.3,0-0.6,0.2-0.5,0.6c0.1,0.3,0.5,0.3,0.8,0.1
		c0.2-0.2,0.2-0.4,0.2-0.6c0.8,0.3,0.9,1,1.1,1.6c2.3,5.2,3.9,10.5,4.5,16.1c0.7,5.7,0.3,11.3-1.7,16.8c-3.1,8.8-9,15-17.5,18.9
		c-5.8,2.7-12,4.2-18.4,4c-6.9-0.1-13-2.4-18.5-6.6c-5.6-4.3-9.3-10-11.8-16.5c-2.4-6.3-3.7-12.9-3.5-19.7
		c0.4-11.7,5.7-20.6,15.4-26.9c2.4-1.6,5.1-2.7,7.8-3.7C204.1,62.3,204.7,62.1,205.4,62.3c0.1,0.8,0.6,0.8,1.2,0.6
		c0.2-0.1,0.3-0.2,0.3-0.4c-0.2-0.6-0.7-0.1-1.1-0.2C205.6,62.2,205.5,62.3,205.4,62.3z M202.1,120.2c-0.3,0.1-0.5,0.2-0.7,0.2
		c-0.5,0.1-1,0.4-0.9,1c0.2,0.6,0.8,0.5,1.3,0.5c0.2,0,0.4,0,0.5-0.1c0.8-1,1.5-0.3,2.2,0.2c3.7,2.6,7.8,3.8,12.4,3.8
		c3.5,0,6.9-0.8,10.1-2.1c8.4-3.4,12.7-9.8,13.3-18.8c0.2-3.7-0.2-7.4-1.1-11c-1.4-5.7-3.4-11.1-7-15.8c-3.6-4.6-8.1-7.6-14-8.1
		c-6.1-0.5-11.8,1-16.9,4.4c-6.3,4.2-9.1,10.5-9.5,18c-0.3,5.6,0.9,10.9,2.9,16.1c1,2.6,2.1,5.1,3.7,7.4
		C199.4,117.4,200.7,118.7,202.1,120.2z M191.4,122.2c0.6,0,1.2-0.1,1.3-0.8c0.1-0.6-0.4-0.8-0.9-1c-0.7-0.3-1.3-0.3-1.8,0.2
		c-0.2,0.2-0.4,0.5-0.3,0.8C190,122.2,190.7,122.2,191.4,122.2z M196.6,125.2c0-0.1,0-0.3-0.1-0.3c-0.9-0.1-1.6-0.7-2.4-1
		c-0.2-0.1-0.5,0.2-0.5,0.5c0,0.1,0.1,0.4,0.2,0.4c0.6,0.2,1.1,0.1,1.4,0.9C195.5,126,196.5,125.7,196.6,125.2z M207.9,65.7
		c-0.1,0.2-0.7,0.2-0.5,0.7c0.1,0.4,0.5,0.3,0.8,0.3c0.3,0,0.7,0,0.7-0.4C208.8,65.8,208.5,65.7,207.9,65.7z M213,132
		c-0.1-0.3-0.3-0.4-0.5-0.3c-0.2,0-0.3,0.1-0.4,0.3c0,0.3,0.2,0.4,0.4,0.4C212.8,132.5,213,132.3,213,132z"/>
	<path fill="#9CD093" d="M99.4,128.8c-0.1-5.7,1.3-10.7,3.8-15.5c0.3-0.6,0.5-1.3,1.3-1.5c0.2,0,0.4-0.2,0.4-0.3
		c0.2-2.7,2.3-4.1,4-5.8c4.9-4.9,10.6-8.5,17.1-10.7c11.6-3.9,22-1.5,30.9,6.7c7.4,6.8,12.4,15.2,14.8,25c3.3,13.3-1.3,26.6-12.8,35
		c-5.1,3.7-10.6,6.5-16.9,7.7c-2.9,0.5-5.7,0.9-8.6,0.4c-0.5-0.1-1.1,0-1.5-0.5c-0.2-0.2-0.4-0.3-0.7-0.2c-1.5,0.7-2.8-0.1-4.1-0.5
		c-6.7-2-12.1-6-16.5-11.4c-5.1-6.4-8.8-13.5-10.5-21.6C99.5,133.3,99.3,131,99.4,128.8z M161.7,137.4c0-1,0-2,0-3
		c0-0.3-0.1-0.6-0.1-0.9c-1.9-9.3-6.3-17.2-13.3-23.7c-6-5.5-13-7.4-20.9-4.6c-0.8,0.3-1.9-0.3-2.2,0.2c-0.5,0.8-1.2,1.2-1.9,1.6
		c-2.2,1.2-4.2,2.6-6,4.3c-5.7,5.6-7.4,12.4-6.3,20.1c0.3,2.3,1.7,4.3,1.4,6.8c0,0.1,0.1,0.2,0.2,0.3c1.1,0.4,1.2,1.5,1.6,2.4
		c2.2,4.5,4.9,8.7,8.7,12.1c4.7,4.2,10.1,6.6,16.5,6.3c5.4-0.3,10.1-2.5,14.4-5.8C159,149.4,161.8,144.2,161.7,137.4z M160.6,119.2
		c0.1-0.8-0.7-1.5-1.7-1.7c-0.4-0.1-0.9-0.2-1.2,0.3c-0.3,0.5,0.1,0.8,0.4,1.1c0.4,0.3,0.9,0.7,1.4,0.9
		C160,120,160.5,119.8,160.6,119.2z M107.1,127.3c0.4,0,0.7-0.2,0.7-0.6c0-0.7-0.4-1-1-1c-0.4,0-1-0.2-0.9,0.4
		C106,126.7,106.5,127.1,107.1,127.3z M161.9,110c-0.2-0.5-0.7-0.7-1.2-0.6c-0.4,0.1-0.9,0.2-0.9,0.8c0,0.6,0.5,0.6,0.9,0.6
		C161.3,110.7,161.8,110.6,161.9,110z M118.3,108.8c0.3-0.1,0.6-0.4,0.6-0.8c0-0.4-0.2-0.8-0.6-0.7c-0.4,0-0.6,0.4-0.6,0.8
		C117.6,108.5,117.8,108.8,118.3,108.8z M109.3,137c0.3,0,0.6-0.2,0.6-0.5c0.1-0.4-0.2-0.7-0.6-0.7c-0.4,0-0.7,0.2-0.7,0.6
		C108.6,136.8,108.9,137,109.3,137z M155.5,110.4c0-0.4-0.3-0.5-0.6-0.6c-0.3,0-0.5,0.1-0.5,0.4c0,0.4,0.2,0.5,0.6,0.6
		C155.2,110.8,155.4,110.7,155.5,110.4z M109.1,108.6c0.3,0,0.5-0.1,0.5-0.3c0-0.4-0.2-0.6-0.6-0.5c-0.3,0-0.5,0.2-0.5,0.5
		C108.6,108.5,108.8,108.5,109.1,108.6z M166.3,138.3c-0.3,0-0.5,0.2-0.4,0.5c0,0.1,0.2,0.3,0.4,0.3c0.3,0,0.5-0.1,0.5-0.4
		C166.8,138.5,166.5,138.3,166.3,138.3z M137.1,167c-0.3,0-0.5,0.1-0.5,0.4c0,0.2,0.2,0.3,0.3,0.4c0.3,0,0.5-0.1,0.5-0.4
		C137.5,167.1,137.3,167,137.1,167z M106.8,111.2c0-0.3-0.3-0.4-0.5-0.4c-0.3,0-0.6,0.2-0.6,0.5c0,0.2,0.1,0.5,0.4,0.5
		C106.5,111.8,106.7,111.6,106.8,111.2z M103.5,115.9c0-0.3-0.1-0.5-0.4-0.5c-0.3-0.1-0.5,0.2-0.5,0.4c0,0.2,0.2,0.5,0.5,0.4
		C103.4,116.2,103.5,116.1,103.5,115.9z M105.6,116.2c0-0.2-0.2-0.3-0.4-0.3c-0.1,0-0.2,0.2-0.2,0.3c0,0.2,0.2,0.3,0.4,0.3
		C105.5,116.4,105.6,116.3,105.6,116.2z"/>
	<path fill="#F79981" d="M550.8,147.5c-0.6-0.3-0.6-1-0.9-1.5c-3.3-7-8.3-12.4-15.3-15.7c-2.4-1.1-4.9-1.6-7.6-1
		c-3.8,0.8-7,4.5-7.2,8.4c-0.1,2.2,0.4,4.3,1.4,6.3c1.6,3.3,3.6,6.3,5.5,9.4c1.8,2.9,3.4,5.9,4.8,9c1.1,2.5,1.8,5.1,2,7.8
		c0.3,4.6-1.4,8.6-4.2,12.1c-4,5-9.3,7-15.6,6.8c-4.4-0.2-8.3-1.5-12.3-3.4c0.3-0.6,0.8-0.7,1.2-0.9c0.5-0.4,0.8-0.8,0.5-1.4
		c-0.2-0.4-0.6-0.6-1.1-0.5c-0.6,0.1-1,0.5-1,1.1c0,0.4,0.1,0.9-0.2,1.3c-1.6-0.6-3-1.6-4.4-2.6c-5-3.4-9.4-7.4-12.6-12.6
		c-0.1-0.2-0.2-0.3-0.3-0.5c-1.8-2.9-1.8-2.9,0.2-5.6c1.6-2.1,3.2-4.3,4.7-6.4c0.2-0.2,0.3-0.5,0.8-0.6c0.4,0.5,0.5,1.2,0.7,1.8
		c3.2,8.5,8.8,14.9,17,19c2.2,1.1,4.6,1.9,7.1,1.4c3.7-0.6,7.1-4.2,7.5-8c0.3-2.9-0.5-5.6-1.8-8.2c-1.6-3.2-3.6-6-5.4-9.1
		c-1.7-2.9-3.4-5.9-4.8-9c-4.1-9.6-0.4-18.3,7.2-23.3c4-2.7,8.6-3.1,13.4-2.5c7.7,1.1,14,4.8,19.7,9.9c2.7,2.5,5.1,5.2,7.1,8.3
		c0.5,0.8,0.7,1.4,0,2.3c-1.9,2.4-3.6,4.8-5.4,7.3C551.3,147.1,551.2,147.4,550.8,147.5z M516.6,183c-0.4-0.9-1-0.6-1.3-0.8
		c-1.4-1.1-2.8-1.4-4.3-0.3c-0.4,0.3-1,0.4-1.6,0.3c-0.2-0.1-0.5-0.1-0.7-0.1c-0.4,0-0.7,0.2-0.8,0.6c-0.1,0.5,0.2,0.7,0.6,0.7
		c0.9,0,1.7,0.4,2.5,0.4c0.8,0.1,1.8,0.4,2.3-0.1C514.3,182.9,515.3,182.7,516.6,183z M520.6,182.3c0.8,0,1.3-0.1,1.4-0.7
		c0.2-0.6-0.3-0.9-0.8-1c-0.8-0.3-1.6-0.5-2.4-0.8c-0.3-0.1-0.5,0-0.7,0.2c-0.2,0.2-0.2,0.5,0,0.7
		C518.9,181.5,519.7,182.2,520.6,182.3z M505.2,182.3c0.5-0.1,1.4,0.3,1.4-0.6c0-0.7-0.9-0.7-1.4-0.8c-0.3-0.1-0.6-0.1-0.9,0
		c-0.4,0.1-1.1,0.2-1,0.9c0.1,0.5,0.7,0.4,1.1,0.5C504.7,182.3,505,182.3,505.2,182.3z M529.5,121.8c0-0.4-0.2-0.6-0.4-0.8
		c-0.7-0.4-1.3-0.3-1.9,0.1c-0.3,0.2-0.5,0.4-0.4,0.7c0.3,0.7,1,0.8,1.7,0.8C529,122.7,529.4,122.4,529.5,121.8z M526.2,161.5
		c-1-0.3-1.9-0.3-2.8-0.1c-0.2,0-0.5,0.3-0.5,0.5c-0.1,0.4,0.2,0.5,0.5,0.6C524.5,162.9,525.3,162.4,526.2,161.5z M520.4,186
		c0.3-0.1,1,0.1,0.9-0.7c-0.1-0.5-1.1-0.9-1.8-0.7c-0.4,0.1-0.8,0.2-0.7,0.6c0.1,0.8,0.9,0.7,1.4,0.8C520.2,186,520.3,186,520.4,186
		z M528.6,160.9c-0.3,0.1-0.9,0.2-0.8,0.8c0.1,0.7,0.7,0.8,1.3,0.7c0.4,0,0.9,0,1-0.6C530.2,161.5,529.4,160.9,528.6,160.9z
		 M518.1,131.1c0.4-0.1,0.9-0.2,0.8-0.8c-0.1-0.6-0.6-0.8-1.1-0.8c-0.6,0-0.9,0.3-0.9,0.9C517,131,517.5,131.1,518.1,131.1z
		 M531.7,172.8c-0.6-0.7-1.2-0.9-1.9-1c-0.2,0-0.5,0.1-0.6,0.4c-0.1,0.3,0.1,0.5,0.3,0.6C530.2,173.1,530.9,173.2,531.7,172.8z
		 M520.3,151.9c0.4,0,0.8-0.2,0.8-0.7c0-0.3-0.3-0.5-0.6-0.6c-0.5,0-0.8,0.2-0.9,0.7C519.7,151.6,520,151.8,520.3,151.9z
		 M501.7,179.7c0.5-0.4,0.8-0.6,0.8-1.1c0-0.1-0.2-0.2-0.2-0.2C501.7,178.6,501.5,178.9,501.7,179.7z M513.9,131
		c0-0.2-0.2-0.3-0.4-0.3c-0.2,0-0.4,0.2-0.4,0.3c0,0.3,0.2,0.4,0.5,0.4C513.8,131.4,513.9,131.2,513.9,131z M535.4,126.5
		c0-0.3-0.2-0.4-0.4-0.4c-0.2,0-0.4,0.1-0.4,0.3c0,0.3,0.2,0.4,0.5,0.4C535.3,126.8,535.4,126.7,535.4,126.5z M524.6,180.5
		c0.1-0.2,0.1-0.4-0.1-0.4c-0.1,0-0.2,0-0.3,0.1c-0.1,0.1-0.1,0.3,0,0.4C524.3,180.7,524.5,180.6,524.6,180.5z M512.4,127.6
		c0,0.1-0.1,0.2-0.1,0.3c0,0.1,0.2,0.2,0.3,0.1c0.1-0.1,0.1-0.2,0.1-0.3C512.6,127.7,512.5,127.6,512.4,127.6z"/>
	<path fill="#F79981" d="M587,164.9c-0.6,0.4-1.1,0.3-1.5,0.4c-0.3,0.1-0.6,0.2-0.6,0.6c0.1,0.3,0.4,0.5,0.7,0.5
		c0.9-0.1,1.7-0.1,2.6-0.2c0.8-0.1,1.4,0.1,2.1,0.5c7.3,4.8,12.6,11.2,16,19.2c0.4,0.9,0.5,1.6-0.3,2.3c-2.1,2-4.2,4-6.3,5.9
		c-0.3,0.3-0.7,0.8-1.3,0.7c-0.6-2.3-1.2-4.6-2.2-6.8c-0.1-0.2-0.2-0.5,0-0.7c0.9-0.9,0.1-0.9-0.5-1c-0.3,0-0.4-0.3-0.4-0.5
		c0-0.4,0.3-0.5,0.7-0.4c0.4,0,0.7,0.2,1.1,0.2c0.5,0,0.8-0.2,0.9-0.7c0.1-0.5-0.3-0.8-0.7-1c-0.6-0.2-1.2-0.1-1.8-0.1
		c-0.9,0.1-1.6-0.1-2.2-1c-1.4-2.1-3-4-4.8-5.7c-0.5-0.5-0.9-1-1.3-1.5c0.4-0.6,1-0.2,1.4-0.5c0.2-0.1,0.4-0.3,0.3-0.6
		c-0.1-0.3-0.3-0.4-0.6-0.4c-0.3,0-0.6,0.1-0.9,0.2c-1.1,0.6-2.1,0.3-3.1-0.2c-2.6-1.4-5.3-2.1-8.2-1.2c-3.5,1.1-6.4,4.4-6.6,8.3
		c-0.1,3,0.7,5.7,1.8,8.4c0.7,2,1.5,3.9,2.3,5.9c0.3,0.7,0.8,1.4,0.2,2.3c-0.2,0.3-0.1,0.7,0.3,0.7c0.9,0.1,0.9,0.9,1.2,1.5
		c0.8,2.2,1.5,4.3,1.9,6.6c0.7,3.7,1,7.4-0.4,11.1c-0.6,1.5-1.3,2.8-2.2,4.1c-0.6,0.8-1.2,1.7-2.5,1.7c-0.5,0-1.4,0.2-0.5,1.1
		c0.3,0.3-0.1,0.5-0.4,0.7c-3.2,2.8-7,4.3-11.3,4.4c-0.4,0-0.8-0.1-1.2-0.4c-0.2-0.2-0.5-0.3-0.8-0.2c-2.5,0.9-4.6-0.4-6.9-1.1
		c-0.3-0.1-0.4-0.4-0.6-0.7c-0.4-0.8-0.9-1.2-1.8-0.9c-0.6,0.2-1,0-1.4-0.2c-1.6-0.9-3.1-2-4.6-3.1c-0.3-0.3-0.7-0.5-0.9-0.9
		c-0.1-0.3-0.3-0.6-0.5-0.7c-3.5-1.8-5.6-5-7.9-7.9c-2.6-3.3-4.5-6.9-5.7-10.9c-0.3-1.1-0.1-1.7,0.7-2.4c1.4-1.2,2.7-2.5,4.1-3.8
		c0.6-0.6,1.2-1,2.1-0.4c0.2,0.2,0.6,0.3,0.9,0.3c1.4-0.3,1.7,0.5,2,1.7c0.8,3.5,2.3,6.8,4.2,9.8c0.7,1.1,0.7,1.1-0.3,1.9
		c-0.5,0.4-0.8,0.8-0.6,1.4c0.2,0.6,0.8,0.9,1.3,0.8c2.2-0.3,3.5,0.9,4.9,2.3c2.5,2.5,5.3,4.6,9,5.2c0.8,0.1,1.2,0.9,1.8,1.2
		c1.4,0.6,1.7,0.5,1.9-0.9c0.1-0.5,0.3-0.7,0.7-0.9c2.5-1.3,4.4-3.2,5.2-5.9c0.2-0.6,0.6-0.9,1.2-1c0.5-0.1,1-0.2,1-0.8
		c0-0.5-0.2-1-0.7-1.2c-1-0.2-1.2-0.9-1.2-1.8c-0.1-0.7-0.3-1.5-0.3-2.2c-0.1-1,0.1-1.3,1.1-1.2c1,0.1,2.1,0.3,3.1,0.4
		c0.4,0,0.9,0.1,1.3,0c0.6,0,1.1-0.3,1.3-0.9c0.3-0.6-0.1-1.1-0.5-1.5c-1-0.7-1.6-1.9-2.9-2.2c-0.4-0.1-0.7-0.5-1.1-0.7
		c-0.4-0.3-0.9-0.6-1.4-0.9c-0.4-0.2-0.9-0.4-1.4,0c-0.5,0.4-0.4,0.9-0.3,1.4c0.2,0.8,0.5,1.7,1.1,2.3c0.2,0.2,0.3,0.5,0,0.7
		c-0.3,0.3-0.5,0-0.7-0.3c-1.7-2.5-2.6-5.3-3.6-8c-1.3-3.3-2.4-6.7-3.2-10.2c-2.3-9.9,3-17.5,10.7-21.1c4.2-2,8.7-1.8,13.2-0.6
		C583.8,163.4,585.4,163.9,587,164.9z M561.4,228.5c0-0.1-0.1-0.3-0.1-0.3c-0.9-0.2-1.2-0.8-1.5-1.6c-0.1-0.5-0.8-0.6-1.3-0.4
		c-0.6,0.2-1.2,0.5-1.3,1.2c-0.1,0.6,0.4,0.9,0.8,1.1c0.9,0.3,1.8,0.4,2.7,0.6C561,229,561.3,228.9,561.4,228.5z M551.1,226
		c0.3,0,0.8,0.1,1-0.4c0.2-0.5-0.2-0.8-0.5-1.1c-0.8-0.7-1.8-0.7-2.7-0.1c-0.2,0.1-0.4,0.3-0.3,0.6c0.1,0.3,0.3,0.4,0.5,0.5
		C549.7,225.7,550.4,225.8,551.1,226z M572.3,219.4c-0.9-0.1-1.6,0.2-2.2,0.4c-0.2,0.1-0.4,0.3-0.5,0.5c0,0.4,0.2,0.5,0.5,0.7
		c0.8,0.3,1.5-0.1,2.2-0.2c0.5-0.1,1.1-0.2,1.1-0.8C573.3,219.2,572.6,219.5,572.3,219.4z M541.6,214.7c-0.4,0-0.7,0.2-0.8,0.5
		c-0.1,0.2,0.1,0.5,0.2,0.6c0.4,0.4,0.8,0.9,1.5,1.1c0.5,0.2,1,0.2,1.3-0.2c0.4-0.5-0.1-0.9-0.5-1.2
		C542.8,215,542.2,214.7,541.6,214.7z M566.4,177.4c0.6,0,1.4,0,1.8-0.8c0.1-0.2,0.1-0.4-0.1-0.5c-0.7-0.4-1.4-0.6-2.1-0.3
		c-0.5,0.2-0.9,0.6-0.8,1.1C565.3,177.5,565.9,177.4,566.4,177.4z M572.9,196.6c0.1-0.5-0.5-1.1-1.2-1.2c-0.5,0-0.9,0.2-1,0.7
		c-0.1,0.7,0.4,1,1,1.1C572.2,197.2,572.8,197.2,572.9,196.6z M549.8,219.4c-0.1-0.6-0.6-0.7-1.1-0.7c-0.5,0-0.9,0.1-0.9,0.6
		c0,0.6,0.5,0.8,1.1,0.8C549.3,220.1,549.7,219.9,549.8,219.4z M535.7,203.3c-0.4,0.1-0.7,0.4-0.6,0.8c0.1,0.5,0.5,0.7,0.9,0.7
		c0.4,0,0.7-0.3,0.7-0.7C536.7,203.6,536.3,203.3,535.7,203.3z M537.9,217c0.7,0.3,1.2,0.6,1.7-0.1c0.1-0.1,0-0.3,0-0.3
		c-0.5-0.3-0.9-0.2-1.4,0.1C538.2,216.7,538.1,216.8,537.9,217z M571,198.7c-0.1-0.5-0.4-0.7-0.9-0.7c-0.3,0-0.5,0.2-0.5,0.4
		c0,0.5,0.4,0.7,0.9,0.7C570.8,199.2,570.9,199,571,198.7z M567.5,220.3c0-0.4-0.3-0.5-0.6-0.5c-0.4,0-0.9,0-1,0.5
		c0,0.3,0.3,0.5,0.6,0.5C566.9,220.8,567.3,220.7,567.5,220.3z M566.4,178.6c-0.2-0.3-0.5-0.4-0.9-0.4c-0.3,0-0.6,0.1-0.6,0.5
		c0.1,0.4,0.4,0.6,0.8,0.5C566.1,179.2,566.3,179,566.4,178.6z M534.9,209c-0.2,0-0.4,0.1-0.4,0.3c0,0.5,0.4,0.7,0.8,0.7
		c0.2,0,0.3-0.2,0.3-0.4C535.6,209.2,535.3,209,534.9,209z M601,186.2c0-0.3-0.2-0.5-0.4-0.4c-0.3,0-0.5,0.1-0.5,0.4
		c0,0.3,0.1,0.5,0.3,0.5C600.8,186.8,600.9,186.5,601,186.2z M602.7,184.8c-0.1-0.2-0.2-0.2-0.4-0.2c-0.2,0-0.3,0.1-0.3,0.3
		c0,0.2,0.2,0.2,0.4,0.2C602.5,185.1,602.7,185,602.7,184.8z M561.2,176.8c0-0.2-0.1-0.3-0.3-0.3c-0.1,0-0.3,0.1-0.3,0.2
		c-0.1,0.2,0,0.3,0.2,0.4C561,177,561.1,177,561.2,176.8z M599.9,188.3c0.1-0.2-0.1-0.3-0.3-0.4c-0.2-0.1-0.5,0-0.6,0.3
		c-0.1,0.2,0.1,0.3,0.3,0.4C599.5,188.6,599.7,188.6,599.9,188.3z M590.9,169.4c0-0.2-0.1-0.3-0.3-0.3c-0.2,0-0.4,0.1-0.4,0.2
		c-0.1,0.3,0.1,0.4,0.4,0.4C590.7,169.7,590.8,169.5,590.9,169.4z M590.9,171.5c0.2,0,0.4-0.1,0.3-0.3c0-0.2-0.2-0.3-0.4-0.3
		c-0.2,0-0.4,0.1-0.3,0.3C590.6,171.5,590.7,171.5,590.9,171.5z M592.3,174.8c0.1-0.1,0.2-0.2,0.1-0.3c-0.1-0.1-0.2-0.2-0.3-0.1
		c-0.1,0.1-0.1,0.2-0.2,0.3C592.1,174.7,592.2,174.8,592.3,174.8z M573.5,199.1c0,0.1-0.1,0.2-0.1,0.3c0,0,0.1,0.1,0.1,0.1
		c0.1-0.1,0.2-0.1,0.2-0.2C573.7,199.3,573.5,199.2,573.5,199.1z"/>
	<path fill="#F79981" d="M534.7,194.6c0-0.2,0-0.3,0-0.3c0.3-0.4,0.6-1,1.2-0.6c0.1,0.1,0.2,0.3,0.2,0.5
		C535.9,194.8,535.3,194.7,534.7,194.6z"/>
	<path fill="#9CD093" d="M57.9,170.5c0-0.2,0.1-0.4,0.3-0.4c0,0,0.1,0.1,0.1,0.1C58.3,170.4,58.1,170.5,57.9,170.5L57.9,170.5z"/>
	<path fill="#FFFFFF" d="M20.5,154.5c-0.3,0-0.5,0.3-0.7,0.5c-0.6,0.7-1.1,1.6-2.4,1.4c-0.2,0-0.3,0.5-0.8,0.4
		c0-0.6,0.6-1.5-0.4-1.8c-0.6-0.2-1.2,0.3-1.6,1.5c-1.2-0.8-1.2-1.3-0.4-2.3c0.7-0.8,1.3-1.8,2.1-2.5c0.3-0.3,0.5-0.9,1.2-0.6
		c0.7,0.4,1.8,0.1,2.2,1.1C19.9,153,20.5,153.7,20.5,154.5C20.5,154.5,20.5,154.5,20.5,154.5z M17.6,152.1c0-0.1-0.1-0.3-0.2-0.3
		c-0.2-0.1-0.3,0.1-0.3,0.3c0,0.1,0.1,0.3,0.1,0.3C17.5,152.5,17.5,152.3,17.6,152.1z"/>
	<path fill="#FFFFFF" d="M43.8,133c-0.7-0.1-1.3-0.1-1.9,0.4c-0.2,0.2-0.5,0.3-0.8,0.3c-0.5,0.1-1.1,0.2-1.2-0.4
		c-0.2-0.6,0-1.2,0.7-1.3c0.9-0.2,1.7-0.5,1.7-1.6c0,0,0.1-0.1,0.1-0.1c1.4,0.1,2.4-1.2,3.8-1c0.6,0.1,0.7,0.4,0.6,0.9
		c-0.1,0.7-0.4,1.2-1.1,1.6C44.9,132.1,44.1,132.3,43.8,133C43.8,133.1,43.8,133,43.8,133z"/>
	<path fill="#FFFFFF" d="M13,177.3c0.7,0.5,1.9,0.5,1.6,1.4c-0.2,1-1.3,0.6-2,0.6c-0.4,0-0.8,0-0.9-0.4c-0.1-0.4,0.1-0.7,0.4-0.9
		c0.3-0.2,0.5-0.4,0-0.5c-0.6-0.1-0.6-0.6-0.5-1c0.2-0.8,0.4-1.7,0.7-2.4c0.3-0.8,1-0.7,1.7-0.4c0.6,0.3,0.9,0.6,0.7,1.4
		C14.5,176,13.8,176.5,13,177.3z"/>
	<path fill="#FFFFFF" d="M94.8,173.6c-0.3,0.8-0.2,1.7-1.1,2.1c-1,0.4-2.1,0.2-3.1,0.1c-0.8-0.1-1.1-1.9-0.5-2.5
		c0.5-0.5,1-0.9,1.5-1.4c0.4-0.3,0.8-0.4,1.2,0c0.4,0.4,0.2,0.8,0,1.1c-0.3,0.4-1,0.8-0.5,1.3c0.5,0.5,1.1,0.1,1.7-0.2
		C94.2,174,94.3,173.6,94.8,173.6z"/>
	<path fill="#FFFFFF" d="M87.3,171.3c-0.3,0.6-0.1,1.3-0.5,1.7c-0.3,0.3-0.6,0.4-1,0.3c-0.3-0.1-0.5-0.5-0.3-0.8
		c0.4-0.9,0.2-1.7-0.3-2.6c-0.3-0.5,0.5-2,1.2-2.3c0.5-0.2,0.9-0.1,0.9,0.5c0,0.4,0,0.7,0,1.1c0,0.7,0.1,1.2,1,1.2
		c0.6,0,1.2,0.3,0.9,1c-0.3,0.8-0.8,0.5-1.3,0.1C87.6,171.4,87.4,171.4,87.3,171.3z"/>
	<path fill="#FFFFFF" d="M16.5,185c-0.5-0.7-1.5-0.3-1.8-1.1c1.5-1.3,2.9-0.9,3.7,0.9c0,0.1,0.1,0.2,0.1,0.3c0,0.4-2.1,1.9-2.5,1.9
		c-0.4-0.1-0.8-0.2-1.3-0.3c-0.4-0.1-1.1,0-0.9-0.7c0.2-0.6,0.4-1.3,1.2-1C15.5,185.2,15.9,185.5,16.5,185z"/>
	<path fill="#FFFFFF" d="M79.6,212.3c1.4-0.1,2.6,0.7,3.8,1.2c0.1,0.1,0.3,0.3,0.3,0.4c0,0.3-0.2,0.4-0.4,0.5
		c-0.2,0.1-0.5,0.1-0.7,0.1c-1.3-0.3-2.6-0.7-3.9-1.1c-0.3-0.1-0.6-0.3-0.6-0.6c0-0.5,0.5-0.5,0.8-0.5
		C79.1,212.3,79.4,212.3,79.6,212.3z"/>
	<path fill="#FFFFFF" d="M100.3,181.2c-0.8,0-1.5-0.3-2.3-0.6c-0.3-0.1-0.5-0.4-0.4-0.7c0.1-0.4,0.4-0.5,0.6-0.6
		c0.7-0.2,2.6,0.2,3.1,0.8c0.2,0.2,0.2,0.4,0.1,0.7C101.1,181.2,100.7,181.2,100.3,181.2z"/>
	<path fill="#FFFFFF" d="M12.8,165.7c0.7,0.2,0.7,0.8,1,1.1c1.5,1.4,1.5,1.6-0.5,3.2C13.5,168.5,12.1,167.3,12.8,165.7z"/>
	<path fill="#FFFFFF" d="M105.8,185.1c0,0.3,0.1,0.6,0.1,0.9c0.4,1.2,0.3,1.4-0.9,1.5c-0.8,0-1.6,0.2-2.3-0.7c1-0.5,2.2-0.6,2.7-1.9
		C105.6,185,105.7,185.1,105.8,185.1z"/>
	<path fill="#FFFFFF" d="M64.2,168c0,0.8-0.7,1.6-1.4,1.6c-0.5,0-1-0.2-1.1-0.8c-0.1-0.7,1-1.8,1.8-1.8
		C64,167.2,64.2,167.5,64.2,168z"/>
	<path fill="#FFFFFF" d="M61.3,223.7c-0.4,0-1-0.1-1-0.7c-0.1-0.6,0.5-0.8,1-0.9c0.8-0.1,2.5,0.4,2.5,0.7
		C63.9,223.3,62.5,223.8,61.3,223.7z"/>
	<path fill="#FFFFFF" d="M69.2,168.9c-0.8,0-1.5-0.5-1.5-1.1c0-0.6,0.4-0.9,0.9-0.9c0.5,0,1.8,0.8,1.7,1.2
		C70.4,168.9,69.7,168.9,69.2,168.9z"/>
	<path fill="#FFFFFF" d="M84.1,218.4c-0.7,0-1.4,0.3-2.2,0.2c-0.4-0.1-0.8-0.3-0.8-0.8c0-0.4,0.4-0.5,0.8-0.6
		c1.5-0.5,1.9-0.3,2.4,1.1C84.2,218.2,84.2,218.3,84.1,218.4z"/>
	<path fill="#FFFFFF" d="M73.4,215.2c-0.6,0-1.2-0.2-1.2-0.9c0-0.5,0.5-0.7,0.9-0.7c0.6,0,1.1,0.2,1.2,0.9
		C74.2,215.1,73.7,215.2,73.4,215.2z"/>
	<path fill="#FFFFFF" d="M97.9,176.3c-0.1,0.7-0.7,0.8-1.2,0.8c-0.5,0-1.1-0.1-1.1-0.7c0.1-0.8,0.8-0.8,1.4-0.8
		C97.4,175.6,97.8,175.7,97.9,176.3z"/>
	<path fill="#FFFFFF" d="M35.4,211.8c-0.3,0-0.6-0.2-0.6-0.5c-0.1-0.5,0.8-1.1,1.4-1.1c0.2,0,0.5,0.1,0.5,0.4
		C36.8,211,36,211.7,35.4,211.8z"/>
	<path fill="#FFFFFF" d="M7.5,169c0.8-0.1,0.8,0.7,1.3,1.1c0.4,0.3,0.4,0.7-0.1,1.1c-0.5,0.3-0.9,0.2-1.3-0.3
		C7,170.2,7.4,169.6,7.5,169C7.5,169,7.5,169,7.5,169z"/>
	<path fill="#FFFFFF" d="M98.3,174.4c-0.4,0-0.6-0.2-0.6-0.5c0-0.5,0.1-1,0.7-1.1c0.3-0.1,0.6,0.1,0.7,0.4
		C99.1,173.8,98.8,174.2,98.3,174.4z"/>
	<path fill="#FFFFFF" d="M105.2,190.2c0.3,0,0.7,0.2,0.7,0.5c0.1,0.5-0.4,0.7-0.8,0.7c-0.3,0-0.6-0.2-0.6-0.6
		C104.5,190.4,104.9,190.3,105.2,190.2z"/>
	<path fill="#FFFFFF" d="M95.5,202.7c-0.2,0.5-0.6,0.6-1,0.5c-0.4-0.1-0.7-0.3-0.6-0.8c0.1-0.4,0.5-0.5,0.9-0.4
		C95.2,202.1,95.5,202.2,95.5,202.7z"/>
	<path fill="#FFFFFF" d="M88.9,211.9c0,0.4-0.4,0.6-0.7,0.6c-0.4,0-0.8-0.2-0.8-0.6c0-0.5,0.3-0.6,0.7-0.6
		C88.5,211.3,88.8,211.5,88.9,211.9z"/>
	<path fill="#FFFFFF" d="M101.1,178.1c-0.4,0-0.8-0.2-0.9-0.7c-0.1-0.4,0.2-0.6,0.5-0.6c0.5,0,0.8,0.3,0.9,0.8
		C101.6,177.9,101.5,178.1,101.1,178.1z"/>
	<path fill="#FFFFFF" d="M97.2,170.1c0,0.2,0.1,0.4,0.1,0.5c-0.1,0.6-0.5,0.9-1.1,0.9c-0.3,0-0.5-0.2-0.5-0.5c0-0.6,0.5-0.7,1-0.9
		C96.8,170.1,97,170.1,97.2,170.1C97.2,170.1,97.2,170.1,97.2,170.1z"/>
	<path fill="#FFFFFF" d="M69.6,170.6c-0.2,0.4-0.4,0.6-0.9,0.5c-0.3,0-0.5-0.3-0.4-0.5c0-0.5,0.4-0.6,0.8-0.5
		C69.4,170.1,69.6,170.3,69.6,170.6z"/>
	<path fill="#FFFFFF" d="M14.6,171.8c0.4,0,0.5,0.3,0.5,0.6c0.1,0.3,0,0.5-0.3,0.5c-0.4,0.1-0.5-0.2-0.5-0.5
		C14.3,172.1,14.4,171.9,14.6,171.8z"/>
	<path fill="#FFFFFF" d="M89.6,168.3c-0.1,0.2-0.4,0.3-0.6,0.2c-0.3-0.1-0.6-0.3-0.5-0.6c0.1-0.3,0.4-0.3,0.6-0.2
		C89.4,167.7,89.7,167.9,89.6,168.3z"/>
	<path fill="#FFFFFF" d="M15.1,148.7c0,0.2-0.1,0.4-0.4,0.5c-0.3,0.1-0.6-0.1-0.6-0.5c0-0.3,0.2-0.4,0.5-0.4
		C14.8,148.3,15,148.3,15.1,148.7z"/>
	<path fill="#FFFFFF" d="M93.8,168.6c0,0.5-0.2,0.7-0.5,0.7c-0.2,0-0.5-0.1-0.5-0.4c0-0.4,0.2-0.6,0.5-0.6
		C93.5,168.3,93.8,168.4,93.8,168.6z"/>
	<path fill="#FFFFFF" d="M14.1,151.5c0,0.3-0.3,0.4-0.5,0.4c-0.3,0-0.5-0.3-0.4-0.6c0.1-0.3,0.3-0.4,0.5-0.3
		C14,151,14.1,151.2,14.1,151.5z"/>
	<path fill="#FFFFFF" d="M67.9,223.2c-0.1,0.3-0.3,0.5-0.6,0.5c-0.3,0-0.4-0.3-0.4-0.5c0-0.3,0.2-0.5,0.6-0.5
		C67.7,222.7,67.8,223,67.9,223.2z"/>
	<path fill="#FFFFFF" d="M27.2,212.6c0-0.4,0.2-0.6,0.5-0.6c0.3,0,0.5,0.1,0.5,0.4c0,0.4-0.2,0.6-0.5,0.6
		C27.5,213,27.3,212.9,27.2,212.6z"/>
	<path fill="#FFFFFF" d="M71.9,167.2c-0.1,0.3-0.2,0.4-0.5,0.4c-0.2,0-0.3-0.1-0.3-0.3c0-0.3,0.2-0.4,0.5-0.4
		C71.7,166.8,71.9,166.9,71.9,167.2z"/>
	<path fill="#FFFFFF" d="M34.2,220.1c0.1-0.3,0.1-0.6,0.5-0.7c0.3,0,0.7-0.1,0.7,0.3c0,0.3-0.3,0.3-0.5,0.4
		C34.7,220.1,34.4,220.1,34.2,220.1C34.2,220.1,34.2,220.1,34.2,220.1z"/>
	<path fill="#FFFFFF" d="M14.2,162.4c-0.2,0-0.3-0.1-0.3-0.4c0-0.3,0.2-0.4,0.5-0.5c0.3,0,0.5,0.1,0.4,0.4
		C14.7,162.3,14.5,162.4,14.2,162.4z"/>
	<path fill="#FFFFFF" d="M57.9,170.4c0.2,0,0.4-0.1,0.5-0.3c0.3,0.1,0.6,0.2,0.6,0.5c0,0.1-0.2,0.3-0.3,0.3
		C58.1,171.2,58,170.8,57.9,170.4z"/>
	<path fill="#FFFFFF" d="M98.3,189c0.2,0.1,0.6,0,0.5,0.4c0,0.1-0.3,0.2-0.4,0.2c-0.2,0-0.5-0.1-0.5-0.4
		C97.9,189.1,98.2,189,98.3,189z"/>
	<path fill="#FFFFFF" d="M36.2,134.1c0,0.2-0.1,0.3-0.3,0.3c-0.2,0-0.4-0.1-0.4-0.1c-0.1-0.3,0.1-0.4,0.4-0.4
		C36,133.9,36.2,133.9,36.2,134.1z"/>
	<path fill="#FFFFFF" d="M99,200c-0.2,0-0.3-0.1-0.3-0.3c0-0.2,0.2-0.3,0.4-0.2c0.1,0,0.2,0.1,0.3,0.2C99.3,199.9,99.1,200,99,200z"
		/>
	<path fill="#FFFFFF" d="M30.2,204.6c-0.1,0.2-0.2,0.2-0.4,0.2c-0.2-0.1-0.3-0.2-0.2-0.4c0-0.1,0.2-0.1,0.3-0.1
		C30.1,204.3,30.3,204.4,30.2,204.6z"/>
	<path fill="#FFFFFF" d="M95.7,179.1c-0.2,0-0.2-0.2-0.2-0.4c0-0.3,0.1-0.5,0.4-0.4c0.2,0,0.2,0.2,0.2,0.4
		C96,179,95.9,179.1,95.7,179.1z"/>
	<path fill="#FFFFFF" d="M22.9,142c-0.1,0-0.3,0.2-0.4,0.2c-0.3,0-0.4-0.2-0.3-0.5c0.1-0.2,0.3-0.2,0.4-0.1
		C22.9,141.7,23,141.8,22.9,142z"/>
	<path fill="#FFFFFF" d="M65.6,174.3c-0.1,0-0.2,0.1-0.3,0.1c-0.2,0-0.3-0.2-0.1-0.3c0-0.1,0.2-0.1,0.3-0.1
		C65.5,174.1,65.5,174.2,65.6,174.3z"/>
	<path fill="#FFFFFF" d="M83.1,216.3c-0.2,0-0.3-0.1-0.3-0.3c0-0.2,0.2-0.3,0.4-0.2c0.1,0,0.2,0.1,0.2,0.2
		C83.5,216.2,83.3,216.3,83.1,216.3z"/>
	<path fill="#FFFFFF" d="M66.4,172.1c-0.1-0.1-0.2-0.2-0.2-0.2c0-0.2,0.2-0.3,0.3-0.2c0.1,0,0.1,0.2,0.1,0.3
		C66.6,172.1,66.5,172.1,66.4,172.1z"/>
	<path fill="#FFFFFF" d="M19.5,148.9c-0.1,0-0.2-0.1-0.3-0.1c0-0.1,0.1-0.3,0.2-0.3c0.1,0,0.2,0,0.3,0.1
		C19.7,148.7,19.6,148.8,19.5,148.9z"/>
	<path fill="#FFFFFF" d="M330.2,101.7c0,0.3,0,0.6-0.1,0.9c-0.2,0.6-0.6,0.8-1.1,0.4c-0.4-0.3-0.7-0.6-1.2-0.8
		c-0.9-0.4-1-0.8-0.4-1.5c0.5-0.6,1-1.5,1.9-1.2C330.2,99.8,330.2,100.8,330.2,101.7z"/>
	<path fill="#FFFFFF" d="M330.7,110.5c0.6,0,0.8,0.3,0.9,0.8c0.2,0.9,0,1.9,0.4,2.9c0.1,0.4-0.3,0.6-0.7,0.6c-0.5,0-0.8-0.3-1-0.7
		c-0.3-0.7-0.5-1.5-0.6-2.3C329.5,111.1,330.1,110.7,330.7,110.5z"/>
	<path fill="#FFFFFF" d="M279.8,108c-0.6,0-0.9-0.5-0.9-1.1c0-0.8,0.6-1.1,1.3-1.1c0.6,0,1.1,0.2,1.3,0.8
		C281.6,107.2,280.7,108,279.8,108z"/>
	<path fill="#FFFFFF" d="M299.8,119.4c-0.3-0.1-0.5-0.2-0.4-0.5c0-0.3,0.3-0.4,0.5-0.3c0.3,0,0.5,0.2,0.4,0.5
		C300.3,119.3,300.1,119.4,299.8,119.4z"/>
	<path fill="#FFFFFF" d="M369.2,92.1c0.1,0.6-0.1,0.8-0.4,1c-1.2,0.7-2.6,0.6-3.9,1c-0.7,0.2-1.2-0.7-0.6-1.4c0.4-0.5,0.7-1.1,1-1.7
		c0.2-0.5,0.7-0.8,1.2-1c1.1-0.5,1.7-0.2,2.2,0.9C369,91.3,369.1,91.9,369.2,92.1z"/>
	<path fill="#FFFFFF" d="M367,98.6c0.6,0.1,0.9,0.4,0.9,1.1c0,0.7-0.9,1.4-1.5,1.3c-0.7-0.1-0.9-0.6-0.9-1.2
		C365.6,99.2,366.3,98.6,367,98.6z"/>
	<path fill="#FFFFFF" d="M418.6,79c0.2,0,0.3,0.1,0.4,0.3c0,0.3-0.3,0.3-0.5,0.3c-0.2,0-0.3-0.1-0.3-0.3
		C418.1,79.1,418.4,79,418.6,79z"/>
	<path fill="#FFFFFF" d="M474.3,86.2c-0.1,0.7-0.5,0.9-1.1,0.9c-0.4,0-0.9,0-0.9-0.6c0-0.4,0.7-1.2,1.2-1.1
		C473.9,85.4,474.2,85.7,474.3,86.2z"/>
	<path fill="#FFFFFF" d="M427.4,127.4c-0.4,0-0.7-0.2-0.7-0.5c0-0.5,0.4-0.6,0.8-0.5c0.3,0,0.6,0.2,0.5,0.6
		C427.9,127.4,427.6,127.4,427.4,127.4z"/>
	<path fill="#FFFFFF" d="M486.6,108.1c-0.2,0-0.4,0-0.4-0.2c-0.1-0.3,0.1-0.5,0.3-0.6c0.2-0.1,0.4,0.1,0.4,0.2
		C487,107.8,486.8,108,486.6,108.1z"/>
	<path fill="#FFFFFF" d="M191.4,122.2c-0.7,0-1.3-0.1-1.7-0.8c-0.2-0.3,0.1-0.6,0.3-0.8c0.6-0.5,1.2-0.6,1.8-0.2
		c0.4,0.2,0.9,0.5,0.9,1C192.5,122.1,191.9,122.2,191.4,122.2z"/>
	<path fill="#FFFFFF" d="M196.6,125.2c-0.1,0.5-1.1,0.8-1.3,0.4c-0.3-0.7-0.8-0.7-1.4-0.9c-0.1,0-0.2-0.3-0.2-0.4
		c0-0.3,0.3-0.5,0.5-0.5c0.8,0.3,1.5,0.9,2.4,1C196.6,124.9,196.6,125.1,196.6,125.2z"/>
	<path fill="#FFFFFF" d="M207.9,65.7c0.5,0,0.9,0.1,0.9,0.6c0,0.4-0.4,0.4-0.7,0.4c-0.3,0-0.7,0.1-0.8-0.3
		C207.3,65.9,207.8,65.9,207.9,65.7z"/>
	<path fill="#FFFFFF" d="M205.4,62.3c0.1,0,0.2,0,0.4,0c0.4,0.1,0.8-0.4,1.1,0.2c0.1,0.2-0.1,0.3-0.3,0.4
		C206,63,205.5,63.1,205.4,62.3C205.4,62.3,205.4,62.3,205.4,62.3z"/>
	<path fill="#FFFFFF" d="M213,132c0,0.3-0.2,0.4-0.4,0.4c-0.3,0-0.4-0.2-0.4-0.4c0-0.2,0.2-0.3,0.4-0.3
		C212.7,131.7,212.9,131.8,213,132z"/>
	<path fill="#FFFFFF" d="M245.8,78.6c0,0.2,0,0.5-0.2,0.6c-0.3,0.2-0.6,0.2-0.8-0.1c-0.2-0.4,0.1-0.5,0.5-0.6
		C245.4,78.5,245.6,78.6,245.8,78.6C245.8,78.6,245.8,78.6,245.8,78.6z"/>
	<path fill="#FFFFFF" d="M160.6,119.2c-0.1,0.6-0.5,0.8-1.1,0.5c-0.5-0.2-0.9-0.6-1.4-0.9c-0.3-0.3-0.7-0.6-0.4-1.1
		c0.3-0.5,0.8-0.3,1.2-0.3C159.9,117.7,160.6,118.4,160.6,119.2z"/>
	<path fill="#FFFFFF" d="M107.1,127.3c-0.6-0.2-1.1-0.6-1.2-1.2c-0.1-0.6,0.6-0.5,0.9-0.4c0.6,0,1.1,0.3,1,1
		C107.9,127.1,107.5,127.2,107.1,127.3z"/>
	<path fill="#FFFFFF" d="M161.9,110c-0.1,0.6-0.6,0.7-1.1,0.8c-0.4,0-0.9,0-0.9-0.6c0-0.5,0.4-0.7,0.9-0.8
		C161.3,109.3,161.7,109.5,161.9,110z"/>
	<path fill="#FFFFFF" d="M118.3,108.8c-0.5,0-0.7-0.3-0.7-0.7c0-0.4,0.2-0.7,0.6-0.8c0.5,0,0.6,0.4,0.6,0.7
		C118.9,108.5,118.7,108.7,118.3,108.8z"/>
	<path fill="#FFFFFF" d="M109.3,137c-0.4-0.1-0.7-0.2-0.7-0.6c0-0.4,0.3-0.6,0.7-0.6c0.4,0,0.7,0.3,0.6,0.7
		C109.8,136.8,109.6,137,109.3,137z"/>
	<path fill="#FFFFFF" d="M155.5,110.4c-0.1,0.3-0.3,0.4-0.5,0.4c-0.3,0-0.6-0.2-0.6-0.6c0-0.3,0.3-0.4,0.5-0.4
		C155.2,109.9,155.5,110,155.5,110.4z"/>
	<path fill="#FFFFFF" d="M109.1,108.6c-0.3,0-0.5-0.1-0.5-0.4c0-0.3,0.2-0.4,0.5-0.5c0.4,0,0.6,0.2,0.6,0.5
		C109.6,108.5,109.3,108.6,109.1,108.6z"/>
	<path fill="#FFFFFF" d="M166.3,138.3c0.3,0,0.5,0.1,0.5,0.4c0,0.3-0.2,0.4-0.5,0.4c-0.1,0-0.3-0.2-0.4-0.3
		C165.8,138.5,166,138.4,166.3,138.3z"/>
	<path fill="#FFFFFF" d="M137.1,167c0.2,0,0.3,0.2,0.3,0.4c0,0.3-0.2,0.4-0.5,0.4c-0.2,0-0.3-0.2-0.3-0.4
		C136.7,167.1,136.9,166.9,137.1,167z"/>
	<path fill="#FFFFFF" d="M106.8,111.2c0,0.4-0.3,0.6-0.7,0.6c-0.3,0-0.4-0.2-0.4-0.5c0-0.3,0.3-0.5,0.6-0.5
		C106.5,110.8,106.7,110.8,106.8,111.2z"/>
	<path fill="#FFFFFF" d="M103.5,115.9c0,0.2-0.2,0.3-0.4,0.3c-0.3,0-0.5-0.2-0.5-0.4c0-0.2,0.1-0.5,0.5-0.4
		C103.4,115.4,103.6,115.6,103.5,115.9z"/>
	<path fill="#FFFFFF" d="M105.6,116.2c-0.1,0.1-0.1,0.2-0.2,0.3c-0.2,0.1-0.4-0.1-0.4-0.3c0-0.1,0.1-0.2,0.2-0.3
		C105.5,115.9,105.6,116,105.6,116.2z"/>
	<path fill="#FFFFFF" d="M516.6,183c-1.3-0.3-2.3-0.2-3.3,0.7c-0.5,0.5-1.5,0.2-2.3,0.1c-0.9-0.1-1.7-0.4-2.5-0.4
		c-0.4,0-0.7-0.2-0.6-0.7c0.1-0.4,0.4-0.6,0.8-0.6c0.2,0,0.5,0.1,0.7,0.1c0.6,0.1,1.2,0,1.6-0.3c1.6-1.2,3-0.8,4.3,0.3
		C515.6,182.5,516.2,182.2,516.6,183z"/>
	<path fill="#FFFFFF" d="M520.6,182.3c-0.9-0.1-1.7-0.8-2.4-1.7c-0.2-0.2-0.2-0.5,0-0.7c0.2-0.2,0.4-0.2,0.7-0.2
		c0.8,0.3,1.6,0.5,2.4,0.8c0.5,0.2,1,0.4,0.8,1C521.9,182.2,521.4,182.3,520.6,182.3z"/>
	<path fill="#FFFFFF" d="M505.2,182.3c-0.3,0-0.5,0-0.8,0c-0.4,0-1,0.1-1.1-0.5c-0.1-0.6,0.5-0.7,1-0.9c0.3-0.1,0.6-0.1,0.9,0
		c0.6,0.2,1.5,0.1,1.4,0.8C506.6,182.7,505.7,182.2,505.2,182.3z"/>
	<path fill="#FFFFFF" d="M529.5,121.8c-0.1,0.5-0.4,0.8-1,0.9c-0.7,0-1.4-0.1-1.7-0.8c-0.2-0.3,0.1-0.6,0.4-0.7
		c0.6-0.4,1.2-0.5,1.9-0.1C529.3,121.2,529.5,121.5,529.5,121.8z"/>
	<path fill="#FFFFFF" d="M526.2,161.5c-0.9,0.9-1.7,1.5-2.8,1c-0.3-0.1-0.6-0.3-0.5-0.6c0.1-0.2,0.3-0.4,0.5-0.5
		C524.2,161.2,525.1,161.2,526.2,161.5z"/>
	<path fill="#FFFFFF" d="M520.4,186c-0.2,0-0.2,0-0.3,0c-0.6-0.1-1.3,0-1.4-0.8c-0.1-0.4,0.4-0.6,0.7-0.6c0.8-0.2,1.8,0.2,1.8,0.7
		C521.4,186.1,520.8,186,520.4,186z"/>
	<path fill="#FFFFFF" d="M528.6,160.9c0.8,0,1.6,0.6,1.5,1c-0.1,0.5-0.6,0.6-1,0.6c-0.6,0-1.2-0.1-1.3-0.7
		C527.7,161.1,528.3,161,528.6,160.9z"/>
	<path fill="#FFFFFF" d="M518.1,131.1c-0.6,0-1.1-0.1-1.2-0.7c0-0.6,0.3-0.9,0.9-0.9c0.5,0,1,0.3,1.1,0.8
		C519.1,131,518.5,131.1,518.1,131.1z"/>
	<path fill="#FFFFFF" d="M531.7,172.8c-0.9,0.5-1.5,0.4-2.1,0c-0.2-0.1-0.4-0.3-0.3-0.6c0.1-0.3,0.3-0.4,0.6-0.4
		C530.5,171.8,531.1,172.1,531.7,172.8z"/>
	<path fill="#FFFFFF" d="M520.3,151.9c-0.4,0-0.7-0.2-0.6-0.6c0-0.5,0.4-0.7,0.9-0.7c0.3,0,0.6,0.2,0.6,0.6
		C521.2,151.7,520.8,151.8,520.3,151.9z"/>
	<path fill="#FFFFFF" d="M501.7,179.7c-0.2-0.8,0-1.1,0.5-1.3c0,0,0.2,0.1,0.2,0.2C502.5,179.1,502.1,179.4,501.7,179.7z"/>
	<path fill="#FFFFFF" d="M513.9,131c0,0.2-0.1,0.4-0.3,0.4c-0.3,0.1-0.5-0.1-0.5-0.4c0-0.2,0.2-0.3,0.4-0.3
		C513.7,130.7,513.9,130.8,513.9,131z"/>
	<path fill="#FFFFFF" d="M535.4,126.5c0,0.2-0.1,0.3-0.4,0.3c-0.3,0-0.4-0.2-0.5-0.4c0-0.2,0.2-0.3,0.4-0.3
		C535.3,126.1,535.4,126.3,535.4,126.5z"/>
	<path fill="#FFFFFF" d="M524.6,180.5c-0.1,0.2-0.3,0.2-0.4,0.1c-0.1-0.1-0.1-0.3,0-0.4c0.1-0.1,0.2-0.1,0.3-0.1
		C524.7,180.1,524.7,180.3,524.6,180.5z"/>
	<path fill="#FFFFFF" d="M512.4,127.6c0.1,0,0.2,0.1,0.3,0.1c0,0.1-0.1,0.2-0.1,0.3c-0.1,0.1-0.3,0-0.3-0.1
		C512.3,127.8,512.3,127.7,512.4,127.6z"/>
	<path fill="#FFFFFF" d="M561.4,228.5c-0.1,0.4-0.4,0.5-0.7,0.5c-0.9-0.2-1.8-0.3-2.7-0.6c-0.5-0.1-0.9-0.5-0.8-1.1
		c0.1-0.7,0.7-1,1.3-1.2c0.5-0.1,1.1-0.1,1.3,0.4c0.2,0.8,0.6,1.4,1.5,1.6C561.3,228.2,561.3,228.4,561.4,228.5z"/>
	<path fill="#FFFFFF" d="M551.1,226c-0.7-0.2-1.4-0.3-2-0.5c-0.2-0.1-0.4-0.2-0.5-0.5c-0.1-0.3,0.1-0.5,0.3-0.6
		c0.8-0.6,1.9-0.6,2.7,0.1c0.3,0.3,0.7,0.6,0.5,1.1C551.9,226.1,551.4,226,551.1,226z"/>
	<path fill="#FFFFFF" d="M572.3,219.4c0.3,0,1.1-0.2,1.1,0.6c0.1,0.6-0.6,0.7-1.1,0.8c-0.7,0.1-1.4,0.5-2.2,0.2
		c-0.3-0.1-0.6-0.3-0.5-0.7c0-0.3,0.2-0.4,0.5-0.5C570.7,219.6,571.4,219.4,572.3,219.4z"/>
	<path fill="#FFFFFF" d="M541.6,214.7c0.6,0.1,1.2,0.3,1.8,0.7c0.4,0.3,0.8,0.7,0.5,1.2c-0.3,0.5-0.8,0.4-1.3,0.2
		c-0.6-0.2-1-0.7-1.5-1.1c-0.2-0.2-0.3-0.4-0.2-0.6C540.9,214.8,541.2,214.7,541.6,214.7z"/>
	<path fill="#FFFFFF" d="M566.4,177.4c-0.5,0-1.1,0-1.2-0.5c-0.1-0.5,0.3-0.9,0.8-1.1c0.7-0.3,1.4-0.2,2.1,0.3
		c0.2,0.1,0.2,0.3,0.1,0.5C567.8,177.4,567,177.4,566.4,177.4z"/>
	<path fill="#FFFFFF" d="M572.9,196.6c-0.2,0.6-0.7,0.6-1.2,0.5c-0.6-0.1-1.1-0.4-1-1.1c0.1-0.5,0.5-0.7,1-0.7
		C572.4,195.4,573,196,572.9,196.6z"/>
	<path fill="#FFFFFF" d="M549.8,219.4c-0.1,0.6-0.5,0.7-1,0.7c-0.5,0-1-0.1-1.1-0.8c0-0.6,0.5-0.6,0.9-0.6
		C549.3,218.7,549.7,218.8,549.8,219.4z"/>
	<path fill="#FFFFFF" d="M535.7,203.3c0.5,0,0.9,0.3,1,0.8c0.1,0.4-0.3,0.7-0.7,0.7c-0.5,0-0.8-0.2-0.9-0.7
		C535.1,203.6,535.3,203.4,535.7,203.3z"/>
	<path fill="#FFFFFF" d="M537.9,217c0.2-0.2,0.3-0.3,0.3-0.3c0.4-0.2,0.9-0.4,1.4-0.1c0.1,0,0.1,0.3,0,0.3
		C539.1,217.6,538.6,217.4,537.9,217z"/>
	<path fill="#FFFFFF" d="M571,198.7c-0.1,0.3-0.3,0.4-0.5,0.4c-0.5,0-0.8-0.2-0.9-0.7c0-0.2,0.2-0.4,0.5-0.4
		C570.6,198.1,570.9,198.3,571,198.7z"/>
	<path fill="#FFFFFF" d="M567.5,220.3c-0.2,0.5-0.6,0.6-1,0.5c-0.3,0-0.6-0.2-0.6-0.5c0.1-0.6,0.6-0.5,1-0.5
		C567.2,219.8,567.5,219.9,567.5,220.3z"/>
	<path fill="#FFFFFF" d="M566.4,178.6c-0.1,0.4-0.3,0.6-0.6,0.6c-0.4,0.1-0.8-0.1-0.8-0.5c-0.1-0.4,0.2-0.5,0.6-0.5
		C565.9,178.2,566.3,178.3,566.4,178.6z"/>
	<path fill="#FFFFFF" d="M534.9,209c0.4,0,0.7,0.2,0.8,0.6c0,0.2-0.1,0.4-0.3,0.4c-0.5,0-0.8-0.2-0.8-0.7
		C534.5,209.1,534.7,209,534.9,209z"/>
	<path fill="#FFFFFF" d="M601,186.2c-0.1,0.3-0.2,0.6-0.6,0.5c-0.3-0.1-0.4-0.3-0.3-0.5c0-0.3,0.3-0.4,0.5-0.4
		C600.9,185.7,601,185.9,601,186.2z"/>
	<path fill="#FFFFFF" d="M602.7,184.8c0,0.2-0.2,0.3-0.4,0.3c-0.2,0-0.4,0-0.4-0.2c0-0.2,0.2-0.3,0.3-0.3
		C602.5,184.6,602.7,184.6,602.7,184.8z"/>
	<path fill="#FFFFFF" d="M561.2,176.8c-0.1,0.2-0.2,0.3-0.4,0.2c-0.2,0-0.3-0.2-0.2-0.4c0-0.1,0.2-0.2,0.3-0.2
		C561.1,176.5,561.2,176.6,561.2,176.8z"/>
	<path fill="#FFFFFF" d="M599.9,188.3c-0.1,0.3-0.3,0.3-0.6,0.3c-0.2,0-0.4-0.1-0.3-0.4c0.1-0.3,0.3-0.3,0.6-0.3
		C599.7,188,599.9,188.1,599.9,188.3z"/>
	<path fill="#FFFFFF" d="M590.9,169.4c0,0.2-0.2,0.3-0.3,0.3c-0.3,0-0.5-0.1-0.4-0.4c0-0.1,0.3-0.2,0.4-0.2
		C590.7,169,590.9,169.1,590.9,169.4z"/>
	<path fill="#FFFFFF" d="M590.9,171.5c-0.2,0-0.4-0.1-0.4-0.2c0-0.2,0.1-0.3,0.3-0.3c0.2,0,0.3,0.1,0.4,0.3
		C591.3,171.5,591.1,171.5,590.9,171.5z"/>
	<path fill="#FFFFFF" d="M592.3,174.8c-0.1,0-0.2-0.1-0.3-0.1c0-0.1,0.1-0.2,0.2-0.3c0.1-0.1,0.2,0,0.3,0.1
		C592.5,174.6,592.5,174.7,592.3,174.8z"/>
	<path fill="#FFFFFF" d="M573.5,199.1c0.1,0.1,0.2,0.1,0.2,0.2c0,0.1-0.1,0.2-0.2,0.2c0,0-0.1-0.1-0.1-0.1
		C573.4,199.3,573.4,199.2,573.5,199.1z"/>
	<path fill="#9CD093" d="M17.6,152.1c-0.1,0.2-0.1,0.4-0.3,0.3c-0.1,0-0.1-0.2-0.1-0.3c0-0.2,0.1-0.4,0.3-0.3
		C17.5,151.8,17.5,152,17.6,152.1z"/>
</g>
</svg>
