<svg version="1.2" baseProfile="tiny" xmlns="http://www.w3.org/2000/svg" viewBox="0 0 285.8 241.9"><g fill="#9BD092"><path d="M262.3 121c.1 65.9-53.3 119.7-120.1 119.6-64.7-.2-121.6-53.1-119-124.7C25.4 54.1 75.8 1.2 143.1 1.2 209 1.2 262.5 54.6 262.3 121zM142.6 227.8c59.4.5 105.7-47.8 107.3-103.3 1.7-63.5-48.4-108-100.6-110.6-30.4-1.5-57 7.8-79.3 28.4-22 20.4-33.6 45.9-34.4 75.8-1.5 62 49 110.3 107 109.7z"/><path d="M153.8 199.1c-17.7 2.7-32.2-.6-44.8-10.4-7.6-5.9-12.9-13.6-15.6-22.9-1.5-5.2.5-8.4 5.7-8.9 2.8-.3 5.3 2 6.3 5.3 2.2 7.8 7.1 13.7 13.6 18.4 7.1 5 15.2 7.2 23.7 7.1 13.1-.3 24.3-5 32.9-15.2 6.1-7.2 8.6-15.5 8.3-24.9-.1-3.6 2.7-5.9 6.7-6 2.7-.1 5.3 3 5.6 6 .7 8.6-1.2 16.5-5.1 24.1-5.9 11.4-15.1 19.4-26.9 24.3-3.9 1.4-8.1 2.4-10.4 3.1z"/></g><path fill="#9BD092" d="M20.3 124.8H10V63.6H0V43.3h122.7v9.8h40.2v-9.8h122.9v19.9h-9.9v61.4h-10.4v10h-92.4v-9.9h-10.2v-20.3h-10.2V84.1h-19.8v20.1h-10.3v20.4h-10.2v10H19.9c.4-3 .4-6.1.4-9.8zm163.8-.7h71v-9.9h9.9V53.6h-91.1v10h-9.8v30.7h10.2v20.1h10c-.2 3.5-.2 6.4-.2 9.7zM21 53.4v60.8h10.2v9.9H102v-10h10.2V93.5h9.9V63.4h-10v-10H21z"/><path fill="#FFF" d="M184.1 124.1h71v-9.9h9.9V53.6h-91.1v10h-9.8v30.7h10.2v20.1h10c-.2 3.5-.2 6.4-.2 9.7zM21 53.4v60.8h10.2v9.9H102v-10h10.2V93.5h9.9V63.4h-10v-10H21z"/></svg>