<?xml version="1.0" encoding="utf-8"?>
<!-- Generator: Adobe Illustrator 19.2.0, SVG Export Plug-In . SVG Version: 6.00 Build 0)  -->
<svg version="1.1" id="Layer_1" xmlns="http://www.w3.org/2000/svg" xmlns:xlink="http://www.w3.org/1999/xlink" x="0px" y="0px"
	 viewBox="0 0 242.2 241.9" style="enable-background:new 0 0 242.2 241.9;" xml:space="preserve">
<style type="text/css">
	.st0{fill:#9BD092;}
	.st1{fill:#FFFFFF;}
</style>
<g>
	<path class="st0" d="M240.4,120.8c0.1,65.9-53.3,119.7-120.1,119.6c-64.7-0.2-121.6-53.1-119-124.7C3.5,53.9,53.9,1,121.2,1
		C187.1,1,240.6,54.4,240.4,120.8z M120.7,227.6c59.4,0.5,105.7-47.8,107.3-103.3c1.7-63.5-48.4-108-100.6-110.6
		c-30.4-1.5-57,7.8-79.3,28.4c-22,20.4-33.6,45.9-34.4,75.8C12.2,179.9,62.7,228.2,120.7,227.6z"/>
	<path class="st0" d="M122.7,185.6c-17.9-0.3-31.7-5.9-42.5-17.7c-6.5-7.1-10.5-15.5-11.6-25.2c-0.6-5.4,1.9-8.2,7.1-7.8
		c2.8,0.2,4.9,2.8,5.3,6.3c0.9,8.1,4.7,14.7,10.4,20.4c6.2,6.1,13.8,9.6,22.2,10.9c13,1.9,24.8-0.9,35-9.5
		c7.2-6.1,11.1-13.9,12.3-23.2c0.5-3.6,3.6-5.4,7.6-4.8c2.7,0.4,4.7,3.8,4.5,6.8c-0.7,8.6-3.9,16.1-9,22.9
		c-7.7,10.3-18.1,16.6-30.5,19.5C129.4,185,125.1,185.3,122.7,185.6z"/>
</g>
<g>
	<path class="st0" d="M20.8,118.1c-3,0-5.5,0-8.4,0c0-16.7,0-33.3,0-50c-2.9,0-5.4,0-8.2,0c0-5.6,0-11,0-16.6c33.3,0,66.7,0,100.3,0
		c0,2.6,0,5.2,0,8c11.1,0,21.9,0,32.9,0c0-2.6,0-5.2,0-8c33.6,0,67,0,100.5,0c0,5.4,0,10.7,0,16.3c-2.6,0-5.2,0-8.1,0
		c0,16.8,0,33.3,0,50.2c-3,0-5.6,0-8.5,0c0,2.9,0,5.4,0,8.2c-25.2,0-50.2,0-75.5,0c0-2.6,0-5.3,0-8.1c-2.9,0-5.4,0-8.3,0
		c0-5.6,0-11,0-16.6c-2.9,0-5.4,0-8.3,0c0-5.6,0-11,0-16.6c-5.5,0-10.7,0-16.2,0c0,5.4,0,10.7,0,16.4c-2.9,0-5.5,0-8.4,0
		c0,5.7,0,11,0,16.7c-2.9,0-5.5,0-8.3,0c0,2.9,0,5.4,0,8.2c-25.3,0-50.3,0-75.6,0C20.8,123.6,20.8,121.1,20.8,118.1z M154.7,117.5
		c19.5,0,38.6,0,58,0c0-2.8,0-5.3,0-8.1c2.8,0,5.4,0,8.1,0c0-16.7,0-33.1,0-49.5c-24.9,0-49.6,0-74.5,0c0,2.8,0,5.3,0,8.2
		c-2.9,0-5.5,0-8,0c0,8.5,0,16.7,0,25.1c2.8,0,5.4,0,8.3,0c0,5.5,0,10.8,0,16.4c2.9,0,5.4,0,8.2,0
		C154.7,112.4,154.7,114.8,154.7,117.5z M21.4,59.7c0,16.6,0,33,0,49.7c2.8,0,5.4,0,8.3,0c0,3,0,5.5,0,8.1c19.4,0,38.5,0,57.9,0
		c0-2.8,0-5.3,0-8.2c2.9,0,5.5,0,8.3,0c0-4.6,0-12.6,0-16.8c0.1,0,0,0,0.1,0c1.5,0,6.5,0,8,0c0-8.4,0-16.4,0-24.6
		c-2.8,0-5.3,0-8.2,0c0-2.8,0-5.5,0-8.2C70.9,59.7,46.2,59.7,21.4,59.7z"/>
</g>
<path class="st1" d="M154.7,117.5c19.5,0,38.6,0,58,0c0-2.8,0-5.3,0-8.1c2.8,0,5.4,0,8.1,0c0-16.7,0-33.1,0-49.5
	c-24.9,0-49.6,0-74.5,0c0,2.8,0,5.3,0,8.2c-2.9,0-5.5,0-8,0c0,8.5,0,16.7,0,25.1c2.8,0,5.4,0,8.3,0c0,5.5,0,10.8,0,16.4
	c2.9,0,5.4,0,8.2,0C154.7,112.4,154.7,114.8,154.7,117.5z"/>
<path class="st1" d="M21.4,59.7c0,16.6,0,33,0,49.7c2.8,0,5.4,0,8.3,0c0,3,0,5.5,0,8.1c19.4,0,38.5,0,57.9,0c0-2.8,0-5.3,0-8.2
	c2.9,0,5.5,0,8.3,0c0-4.6,0-12.6,0-16.8c0.1,0,0,0,0.1,0c1.5,0,6.5,0,8,0c0-8.4,0-16.4,0-24.6c-2.8,0-5.3,0-8.2,0c0-2.8,0-5.5,0-8.2
	C70.9,59.7,46.2,59.7,21.4,59.7z"/>
</svg>
