<?xml version="1.0" encoding="utf-8"?>
<!-- Generator: Adobe Illustrator 19.2.0, SVG Export Plug-In . SVG Version: 6.00 Build 0)  -->
<svg version="1.1" id="Layer_1" xmlns="http://www.w3.org/2000/svg" xmlns:xlink="http://www.w3.org/1999/xlink" x="0px" y="0px"
	 viewBox="0 0 285.8 241.9" style="enable-background:new 0 0 285.8 241.9;" xml:space="preserve">
<style type="text/css">
	.st0{fill:#9BD092;}
	.st1{fill:#FFFFFF;}
</style>
<g>
	<path class="st0" d="M262.2,120.8c0.1,65.9-53.3,119.7-120.1,119.6c-64.7-0.2-121.6-53.1-119-124.7C25.3,53.9,75.7,1,143,1
		C208.9,1,262.4,54.4,262.2,120.8z M142.5,227.6c59.4,0.5,105.7-47.8,107.3-103.3c1.7-63.5-48.4-108-100.6-110.6
		c-30.4-1.5-57,7.8-79.3,28.4c-22,20.4-33.6,45.9-34.4,75.8C34,179.9,84.5,228.2,142.5,227.6z"/>
	<path class="st0" d="M153.7,198.9c-17.7,2.7-32.2-0.6-44.8-10.4c-7.6-5.9-12.9-13.6-15.6-22.9c-1.5-5.2,0.5-8.4,5.7-8.9
		c2.8-0.3,5.3,2,6.3,5.3c2.2,7.8,7.1,13.7,13.6,18.4c7.1,5,15.2,7.2,23.7,7.1c13.1-0.3,24.3-5,32.9-15.2c6.1-7.2,8.6-15.5,8.3-24.9
		c-0.1-3.6,2.7-5.9,6.7-6c2.7-0.1,5.3,3,5.6,6c0.7,8.6-1.2,16.5-5.1,24.1c-5.9,11.4-15.1,19.4-26.9,24.3
		C160.2,197.2,156,198.2,153.7,198.9z"/>
</g>
<g>
	<g>
		<path class="st0" d="M20.2,124.6c-3.7,0-6.7,0-10.3,0c0-20.4,0-40.7,0-61.2c-3.5,0-6.6,0-10,0c0-6.9,0-13.5,0-20.3
			c40.7,0,81.6,0,122.7,0c0,3.2,0,6.4,0,9.8c13.6,0,26.8,0,40.2,0c0-3.2,0-6.4,0-9.8c41.1,0,82,0,122.9,0c0,6.6,0,13.1,0,19.9
			c-3.2,0-6.4,0-9.9,0c0,20.6,0,40.7,0,61.4c-3.7,0-6.9,0-10.4,0c0,3.5,0,6.6,0,10c-30.8,0-61.4,0-92.4,0c0-3.2,0-6.5,0-9.9
			c-3.5,0-6.6,0-10.2,0c0-6.9,0-13.5,0-20.3c-3.5,0-6.6,0-10.2,0c0-6.9,0-13.5,0-20.3c-6.7,0-13.1,0-19.8,0c0,6.6,0,13.1,0,20.1
			c-3.5,0-6.7,0-10.3,0c0,7,0,13.5,0,20.4c-3.5,0-6.7,0-10.2,0c0,3.5,0,6.6,0,10c-31,0-61.5,0-92.5,0
			C20.2,131.4,20.2,128.3,20.2,124.6z M184,123.9c23.9,0,47.2,0,71,0c0-3.4,0-6.5,0-9.9c3.4,0,6.6,0,9.9,0c0-20.4,0-40.5,0-60.6
			c-30.5,0-60.7,0-91.1,0c0,3.4,0,6.5,0,10c-3.5,0-6.7,0-9.8,0c0,10.4,0,20.4,0,30.7c3.4,0,6.6,0,10.2,0c0,6.7,0,13.2,0,20.1
			c3.5,0,6.6,0,10,0C184,117.7,184,120.6,184,123.9z M20.9,53.2c0,20.3,0,40.4,0,60.8c3.4,0,6.6,0,10.2,0c0,3.7,0,6.7,0,9.9
			c23.7,0,47.1,0,70.8,0c0-3.4,0-6.5,0-10c3.5,0,6.7,0,10.2,0c0-5.6,0-15.4,0-20.6c0.1,0,0,0,0.1,0c1.8,0,8,0,9.8,0
			c0-10.3,0-20.1,0-30.1c-3.4,0-6.5,0-10,0c0-3.4,0-6.7,0-10C81.5,53.2,51.3,53.2,20.9,53.2z"/>
	</g>
	<path class="st1" d="M184,123.9c23.9,0,47.2,0,71,0c0-3.4,0-6.5,0-9.9c3.4,0,6.6,0,9.9,0c0-20.4,0-40.5,0-60.6
		c-30.5,0-60.7,0-91.1,0c0,3.4,0,6.5,0,10c-3.5,0-6.7,0-9.8,0c0,10.4,0,20.4,0,30.7c3.4,0,6.6,0,10.2,0c0,6.7,0,13.2,0,20.1
		c3.5,0,6.6,0,10,0C184,117.7,184,120.6,184,123.9z"/>
	<path class="st1" d="M20.9,53.2c0,20.3,0,40.4,0,60.8c3.4,0,6.6,0,10.2,0c0,3.7,0,6.7,0,9.9c23.7,0,47.1,0,70.8,0c0-3.4,0-6.5,0-10
		c3.5,0,6.7,0,10.2,0c0-5.6,0-15.4,0-20.6c0.1,0,0,0,0.1,0c1.8,0,8,0,9.8,0c0-10.3,0-20.1,0-30.1c-3.4,0-6.5,0-10,0
		c0-3.4,0-6.7,0-10C81.5,53.2,51.3,53.2,20.9,53.2z"/>
</g>
</svg>
