<?xml version="1.0" encoding="utf-8"?>
<!-- Generator: Adobe Illustrator 19.2.0, SVG Export Plug-In . SVG Version: 6.00 Build 0)  -->
<svg version="1.2" baseProfile="tiny" id="Layer_1" xmlns="http://www.w3.org/2000/svg" xmlns:xlink="http://www.w3.org/1999/xlink"
	 x="0px" y="0px" viewBox="0 0 242.2 241.9" xml:space="preserve">
<g>
	<path fill="#F1E881" d="M240.4,120.8c0.1,65.9-53.3,119.7-120.1,119.6c-64.7-0.2-121.6-53.1-119-124.7C3.5,53.9,53.9,1,121.2,1
		C187.1,1,240.6,54.4,240.4,120.8z M120.7,227.6c59.4,0.5,105.7-47.8,107.3-103.3c1.7-63.5-48.4-108-100.6-110.6
		C97,12.2,70.4,21.5,48.1,42.1c-22,20.4-33.6,45.9-34.4,75.8C12.2,179.9,62.7,228.2,120.7,227.6z"/>
	<path fill="#F1E881" d="M101.9,92c-0.2,9.7-7.3,17.4-17.4,17.3c-10.3-0.1-17.4-7.4-17.5-17.5c-0.1-9.6,7.9-17.7,18.1-17.4
		C94,74.8,102.1,82.3,101.9,92z"/>
	<path fill="#F1E881" d="M139.7,91.9c0-9.7,8.4-17.7,17.8-17.5c9,0.2,17.3,7.8,17.1,17.5c-0.2,9.9-7.1,17.3-17.4,17.4
		C147.2,109.5,139.9,101.8,139.7,91.9z"/>
	<path fill="#F1E881" d="M167.1,164.6H74.5c-4.1,0-7.5-3.4-7.5-7.5v0c0-4.1,3.4-7.5,7.5-7.5h92.6c4.1,0,7.5,3.4,7.5,7.5v0
		C174.7,161.3,171.3,164.6,167.1,164.6z"/>
</g>
</svg>
