<svg version="1.2" baseProfile="tiny" xmlns="http://www.w3.org/2000/svg" viewBox="0 0 285.8 241.9"><g fill="#F1E881"><path d="M262.2 120.8c.1 65.9-53.3 119.7-120.1 119.6-64.7-.2-121.6-53.1-119-124.7C25.3 53.9 75.7 1 143 1c65.9 0 119.4 53.4 119.2 119.8zM142.5 227.6c59.4.5 105.7-47.8 107.3-103.3 1.7-63.5-48.4-108-100.6-110.6-30.4-1.5-57 7.8-79.3 28.4-22 20.4-33.6 45.9-34.4 75.8-1.5 62 49 110.3 107 109.7z"/><path d="M123.7 92c-.2 9.7-7.3 17.4-17.4 17.3-10.3-.1-17.4-7.4-17.5-17.5-.1-9.6 7.9-17.7 18.1-17.4 8.9.4 17 7.9 16.8 17.6zM161.5 91.9c0-9.7 8.4-17.7 17.8-17.5 9 .2 17.3 7.8 17.1 17.5-.2 9.9-7.1 17.3-17.4 17.4-10 .2-17.3-7.5-17.5-17.4zM188.9 164.6H96.3c-4.1 0-7.5-3.4-7.5-7.5s3.4-7.5 7.5-7.5h92.6c4.1 0 7.5 3.4 7.5 7.5.1 4.2-3.3 7.5-7.5 7.5z"/></g></svg>