<?xml version="1.0" encoding="utf-8"?>
<!-- Generator: Adobe Illustrator 19.2.0, SVG Export Plug-In . SVG Version: 6.00 Build 0)  -->
<svg version="1.2" baseProfile="tiny" id="Layer_1" xmlns="http://www.w3.org/2000/svg" xmlns:xlink="http://www.w3.org/1999/xlink"
	 x="0px" y="0px" viewBox="0 0 285.8 241.9" xml:space="preserve">
<g>
	<path fill="#F6977F" d="M262.2,120.8c0.1,65.9-53.3,119.7-120.1,119.6c-64.7-0.2-121.6-53.1-119-124.7C25.3,53.9,75.7,1,143,1
		C208.9,1,262.4,54.4,262.2,120.8z M142.5,227.6c59.4,0.5,105.7-47.8,107.3-103.3c1.7-63.5-48.4-108-100.6-110.6
		c-30.4-1.5-57,7.8-79.3,28.4c-22,20.4-33.6,45.9-34.4,75.8C34,179.9,84.5,228.2,142.5,227.6z"/>
	<path fill="#F6977F" d="M144.5,134.8c-17.9,0.3-31.7,5.9-42.5,17.7c-6.5,7.1-10.5,15.5-11.6,25.2c-0.6,5.4,1.9,8.2,7.1,7.8
		c2.8-0.2,4.9-2.8,5.3-6.3c0.9-8.1,4.7-14.7,10.4-20.4c6.2-6.1,13.8-9.6,22.2-10.9c13-1.9,24.8,0.9,35,9.5
		c7.2,6.1,11.1,13.9,12.3,23.2c0.5,3.6,3.6,5.4,7.6,4.8c2.7-0.4,4.7-3.8,4.5-6.8c-0.7-8.6-3.9-16.1-9-22.9
		c-7.7-10.3-18.1-16.6-30.5-19.5C151.2,135.3,146.9,135.1,144.5,134.8z"/>
	<path fill="#F6977F" d="M123.7,92c-0.2,9.7-7.3,17.4-17.4,17.3c-10.3-0.1-17.4-7.4-17.5-17.5c-0.1-9.6,7.9-17.7,18.1-17.4
		C115.8,74.8,123.9,82.3,123.7,92z"/>
	<path fill="#F6977F" d="M161.5,91.9c0-9.7,8.4-17.7,17.8-17.5c9,0.2,17.3,7.8,17.1,17.5c-0.2,9.9-7.1,17.3-17.4,17.4
		C169,109.5,161.7,101.8,161.5,91.9z"/>
</g>
</svg>
