<svg xmlns="http://www.w3.org/2000/svg" viewBox="0 0 496.676 496.676"><path d="M404.476 419.11h-23.988l.248-31.1h24.236c4.875 0 6.878-3.944 6.878-8.772l-.497-339.802c0-4.86-3.944-8.803-8.82-8.803H170.02c-4.86 0-8.803 3.96-8.803 8.803v6.738h-44.218v-8.68C116.995 12.81 137.07 0 161.773 0h235.902c24.717 0 44.793 20.075 44.793 44.76v329.603c0 24.67-13.29 44.746-37.992 44.746zm-39.824-312.307v345.112c0 24.686-20.075 44.76-44.76 44.76H98.985c-24.686 0-44.777-20.074-44.777-44.76V106.803c0-24.702 20.09-44.777 44.776-44.777h220.92c24.67 0 44.746 20.076 44.746 44.777zM94.515 93.14c-5.06 0-9.19 4.07-9.19 9.053v354.8c0 4.984 4.13 9.036 9.19 9.036h229.847c5.06 0 9.207-4.053 9.207-9.037V102.208c0-4.984-4.146-9.052-9.208-9.052H94.515v-.015zm200.44 325.876H124.17c-4.286 0-7.764-3.478-7.764-7.763s3.478-7.763 7.763-7.763h170.785c4.285 0 7.763 3.478 7.763 7.763s-3.477 7.763-7.763 7.763zm0-46.578H124.17c-4.286 0-7.764-3.478-7.764-7.763s3.478-7.763 7.763-7.763h170.785c4.285 0 7.763 3.478 7.763 7.763s-3.477 7.763-7.763 7.763zm0-46.578H124.17c-4.286 0-7.764-3.478-7.764-7.763s3.478-7.763 7.763-7.763h170.785c4.285 0 7.763 3.478 7.763 7.763s-3.477 7.763-7.763 7.763zm0-46.578H124.17c-4.286 0-7.764-3.478-7.764-7.763s3.478-7.764 7.763-7.764h170.785c4.285 0 7.763 3.478 7.763 7.763s-3.477 7.762-7.763 7.762zm0-46.578H124.17c-4.286 0-7.764-3.478-7.764-7.763s3.478-7.762 7.763-7.762h170.785c4.285 0 7.763 3.478 7.763 7.763s-3.477 7.764-7.763 7.764zM236.733 170.6h-104.8c-8.587 0-15.527-6.956-15.527-15.526s6.94-15.526 15.526-15.526h104.8c8.587 0 15.527 6.956 15.527 15.526s-6.94 15.526-15.527 15.526z" fill="#fff"/></svg>